<svg width="192" height="64" viewBox="0 0 192 64" fill="none" xmlns="http://www.w3.org/2000/svg">
<rect width="192" height="64" fill="#2A2A2A"/>
<path d="M171.517 30.5697C171.534 29.2342 171.886 27.9248 172.54 26.7633C173.195 25.6018 174.13 24.6259 175.259 23.9264C174.542 22.8942 173.595 22.0446 172.495 21.4454C171.395 20.8461 170.171 20.5135 168.921 20.4741C166.255 20.1921 163.67 22.0819 162.311 22.0819C160.926 22.0819 158.834 20.5021 156.581 20.5488C155.123 20.5963 153.703 21.0232 152.459 21.7881C151.214 22.553 150.187 23.6297 149.478 24.9134C146.407 30.2709 148.698 38.1445 151.639 42.4751C153.111 44.5956 154.831 46.9643 157.082 46.8804C159.285 46.7883 160.108 45.4652 162.766 45.4652C165.4 45.4652 166.172 46.8803 168.469 46.8269C170.832 46.7883 172.321 44.697 173.741 42.5563C174.799 41.0454 175.613 39.3754 176.153 37.6083C174.779 37.0232 173.608 36.0437 172.783 34.792C171.959 33.5403 171.519 32.0719 171.517 30.5697Z" fill="white"/>
<path d="M167.179 17.6257C168.467 16.067 169.102 14.0635 168.949 12.0408C166.98 12.2491 165.161 13.1972 163.855 14.6961C163.217 15.4284 162.727 16.2803 162.416 17.2031C162.104 18.126 161.976 19.1016 162.039 20.0743C163.024 20.0846 163.998 19.8695 164.888 19.4454C165.779 19.0212 166.562 18.3991 167.179 17.6257Z" fill="white"/>
<path d="M28.5051 41.5118H20.9887L19.1837 46.882H16L23.1194 27.0133H26.4271L33.5465 46.882H30.3086L28.5051 41.5118ZM21.7672 39.0336H27.7252L24.7881 30.318H24.7059L21.7672 39.0336Z" fill="white"/>
<path d="M48.9215 39.64C48.9215 44.1416 46.5302 47.0337 42.9217 47.0337C42.0076 47.0819 41.0985 46.8698 40.2985 46.4215C39.4985 45.9733 38.8399 45.3072 38.3982 44.4994H38.3299V51.6743H35.3789V32.3963H38.2353V34.8057H38.2896C38.7516 34.0017 39.4213 33.339 40.2274 32.8881C41.0335 32.4371 41.9458 32.2148 42.8674 32.2447C46.5163 32.2447 48.9215 35.151 48.9215 39.64ZM45.8882 39.64C45.8882 36.7072 44.384 34.7791 42.0889 34.7791C39.8342 34.7791 38.3175 36.7478 38.3175 39.64C38.3175 42.5588 39.8342 44.5134 42.0889 44.5134C44.384 44.5134 45.8882 42.5994 45.8882 39.64H45.8882Z" fill="white"/>
<path d="M64.7458 39.64C64.7458 44.1416 62.3545 47.0338 58.746 47.0338C57.8319 47.0819 56.9228 46.8698 56.1228 46.4216C55.3228 45.9733 54.6642 45.3072 54.2225 44.4994H54.1542V51.6744H51.2031V32.3963H54.0596V34.8057H54.1138C54.5759 34.0017 55.2455 33.339 56.0516 32.8881C56.8577 32.4371 57.7701 32.2148 58.6916 32.2447C62.3406 32.2448 64.7458 35.151 64.7458 39.64ZM61.7125 39.64C61.7125 36.7073 60.2083 34.7791 57.9132 34.7791C55.6584 34.7791 54.1418 36.7479 54.1418 39.64C54.1418 42.5588 55.6584 44.5135 57.9132 44.5135C60.2083 44.5135 61.7125 42.5994 61.7125 39.64Z" fill="white"/>
<path d="M75.2035 41.3462C75.4221 43.3165 77.3218 44.6102 79.9177 44.6102C82.4051 44.6102 84.1946 43.3164 84.1946 41.5398C84.1946 39.9977 83.1153 39.0742 80.5597 38.4414L78.0041 37.8212C74.3832 36.9399 72.7022 35.2337 72.7022 32.4649C72.7022 29.0368 75.6672 26.6821 79.8774 26.6821C84.0442 26.6821 86.9007 29.0368 86.9968 32.4649H84.0178C83.8395 30.4821 82.2128 29.2853 79.8355 29.2853C77.4582 29.2853 75.8315 30.4962 75.8315 32.2587C75.8315 33.6634 76.8705 34.4899 79.4121 35.1227L81.5847 35.6602C85.6306 36.6242 87.3116 38.2618 87.3116 41.168C87.3116 44.8851 84.3729 47.2133 79.699 47.2133C75.326 47.2133 72.3734 44.9398 72.1826 41.3461L75.2035 41.3462Z" fill="white"/>
<path d="M93.6813 28.968V32.3961H96.4152V34.7508H93.6813V42.7367C93.6813 43.9773 94.2287 44.5555 95.4305 44.5555C95.7551 44.5498 96.0791 44.5268 96.4013 44.4867V46.8273C95.8609 46.929 95.3117 46.9751 94.7622 46.9648C91.8514 46.9648 90.7163 45.8632 90.7163 43.0539V34.7508H88.626V32.3961H90.7164V28.968H93.6813Z" fill="white"/>
<path d="M97.998 39.6399C97.998 35.0821 100.662 32.218 104.817 32.218C108.985 32.218 111.637 35.082 111.637 39.6399C111.637 44.2102 108.999 47.0617 104.817 47.0617C100.636 47.0617 97.998 44.2102 97.998 39.6399ZM108.63 39.6399C108.63 36.5133 107.208 34.668 104.817 34.668C102.425 34.668 101.005 36.5274 101.005 39.6399C101.005 42.7789 102.425 44.6102 104.817 44.6102C107.208 44.6102 108.63 42.7789 108.63 39.6399H108.63Z" fill="white"/>
<path d="M114.069 32.3963H116.884V34.8619H116.952C117.143 34.0918 117.59 33.4113 118.22 32.9347C118.85 32.4581 119.623 32.2144 120.41 32.2447C120.75 32.2435 121.09 32.2807 121.421 32.3557V35.1369C120.992 35.0047 120.544 34.944 120.095 34.9572C119.667 34.9397 119.239 35.0158 118.843 35.1805C118.446 35.3451 118.089 35.5942 117.797 35.9109C117.505 36.2275 117.284 36.6041 117.15 37.0147C117.016 37.4254 116.972 37.8605 117.02 38.29V46.8822H114.069L114.069 32.3963Z" fill="white"/>
<path d="M135.028 42.6274C134.631 45.257 132.09 47.0617 128.838 47.0617C124.655 47.0617 122.06 44.2383 122.06 39.7086C122.06 35.1649 124.669 32.218 128.714 32.218C132.691 32.218 135.193 34.9711 135.193 39.3633V40.3821H125.039V40.5617C124.992 41.0949 125.058 41.6319 125.233 42.1373C125.408 42.6426 125.687 43.1047 126.053 43.4927C126.419 43.8808 126.863 44.186 127.355 44.3881C127.846 44.5902 128.375 44.6845 128.906 44.6648C129.603 44.7307 130.303 44.5679 130.901 44.2008C131.5 43.8337 131.964 43.2819 132.226 42.6273L135.028 42.6274ZM125.052 38.3039H132.24C132.265 37.8472 132.201 37.3899 132.051 36.9581C131.901 36.5264 131.668 36.1287 131.365 35.7877C131.062 35.4467 130.696 35.1692 130.287 34.9709C129.878 34.7726 129.434 34.6574 128.98 34.632C128.892 34.627 128.803 34.6255 128.714 34.6274C128.236 34.6245 127.762 34.7165 127.319 34.8982C126.877 35.0798 126.474 35.3475 126.134 35.686C125.794 36.0245 125.523 36.4271 125.338 36.871C125.152 37.3148 125.055 37.7911 125.053 38.2726C125.052 38.2831 125.052 38.2935 125.052 38.3039Z" fill="white"/>
<path d="M86.6167 23.8221H85.5792C83.5594 23.8221 81.4287 23.4041 81.4287 20.5877C81.5642 19.3213 81.8521 18.0762 82.2862 16.8799L83.6284 17.2424L83.4345 17.8697C83.1474 18.7521 82.9573 19.6635 82.8677 20.5877C82.8677 22.5252 84.7076 22.5252 85.9529 22.5252H86.8244C87.447 22.5252 88.3046 22.2744 88.3046 21.4799V15.9736H89.7855V20.1002C90.1045 20.2366 90.4486 20.3029 90.795 20.2947H91.3068V21.5775H90.795C90.453 21.5751 90.1131 21.5236 89.7855 21.4244V21.6196C89.7856 22.3439 89.232 23.8221 86.6167 23.8221ZM85.7731 14.4682C85.599 14.4589 85.4315 14.3984 85.2911 14.2943C85.1507 14.1902 85.0436 14.047 84.983 13.8823C84.9224 13.7176 84.911 13.5387 84.9501 13.3675C84.9892 13.1964 85.0772 13.0405 85.2032 12.9191C85.3291 12.7977 85.4876 12.7161 85.6591 12.6844C85.8305 12.6526 86.0074 12.6721 86.168 12.7405C86.3286 12.8088 86.4658 12.923 86.5628 13.069C86.6597 13.2149 86.7121 13.3863 86.7136 13.5619C86.72 13.7964 86.6336 14.0238 86.4735 14.1941C86.3135 14.3644 86.0928 14.4637 85.8601 14.4701C85.8311 14.4709 85.8021 14.4703 85.7731 14.4682V14.4682Z" fill="white"/>
<path d="M92.9783 20.2944C92.8079 19.6823 92.7284 19.048 92.7426 18.4124C92.6989 17.992 92.7445 17.5671 92.8763 17.1658C93.0081 16.7646 93.2231 16.3961 93.5071 16.085C93.791 15.7739 94.1374 15.5271 94.5232 15.3612C94.909 15.1953 95.3254 15.1139 95.7448 15.1226C97.7096 15.1226 98.471 16.7398 98.471 18.664C98.471 20.0858 97.9724 22.0093 96.0496 22.0093C95.4155 21.9476 94.7922 21.8023 94.1957 21.5773H91.0547V20.2945L92.9783 20.2944ZM94.4725 20.3507C94.9425 20.5511 95.4431 20.6689 95.9526 20.6991C96.8101 20.6991 97.0459 19.5975 97.0459 18.6218C97.0459 17.6882 96.7831 16.3499 95.6619 16.3499C94.6524 16.3499 94.2096 17.2976 94.2096 18.4968C94.1908 19.1254 94.2797 19.7525 94.4725 20.3507V20.3507Z" fill="white"/>
<path d="M108.235 23.8219H107.197C105.177 23.8219 103.046 23.4039 103.046 20.5875C103.182 19.3212 103.47 18.0761 103.903 16.8797L105.246 17.2422L105.052 17.8695C104.765 18.7518 104.575 19.6633 104.485 20.5875C104.485 22.525 106.326 22.525 107.571 22.525H108.442C109.064 22.525 109.922 22.2742 109.922 21.4797V12.1813H111.403V20.1C111.722 20.2363 112.066 20.3026 112.412 20.2945H112.924V21.5773H112.412C112.07 21.5748 111.73 21.5233 111.403 21.4242V21.6194C111.403 22.3437 110.849 23.8219 108.235 23.8219Z" fill="white"/>
<path d="M117.902 15.193V19.1102C117.902 20.7688 116.919 21.5774 114.968 21.5774H112.672V20.2945H114.914C116.09 20.2945 116.408 19.7789 116.408 18.9008V15.193H117.902ZM114.195 24.7C114.021 24.6905 113.853 24.63 113.713 24.5258C113.572 24.4216 113.466 24.2783 113.405 24.1136C113.345 23.9489 113.333 23.77 113.372 23.5989C113.412 23.4278 113.5 23.2719 113.626 23.1506C113.752 23.0293 113.91 22.9478 114.082 22.9161C114.253 22.8844 114.43 22.904 114.59 22.9723C114.751 23.0407 114.888 23.1549 114.985 23.3008C115.082 23.4468 115.134 23.6181 115.136 23.7937C115.139 23.9173 115.117 24.0402 115.07 24.1545C115.024 24.2688 114.954 24.3719 114.865 24.4573C114.776 24.5427 114.671 24.6084 114.555 24.6502C114.44 24.692 114.317 24.709 114.195 24.7H114.195ZM116.519 24.7C116.345 24.6908 116.177 24.6305 116.037 24.5265C115.896 24.4225 115.789 24.2793 115.729 24.1146C115.668 23.9499 115.656 23.771 115.695 23.5998C115.734 23.4286 115.822 23.2726 115.948 23.1511C116.074 23.0297 116.233 22.948 116.404 22.9162C116.576 22.8844 116.753 22.9039 116.913 22.9722C117.074 23.0405 117.211 23.1547 117.308 23.3007C117.405 23.4467 117.457 23.6181 117.459 23.7937C117.465 24.0282 117.379 24.2556 117.219 24.4259C117.059 24.5962 116.838 24.6955 116.605 24.7019C116.577 24.7027 116.548 24.702 116.519 24.7H116.519Z" fill="white"/>
<path d="M119.006 23.6689C119.217 23.695 119.429 23.7088 119.642 23.7103C120.861 23.7103 121.469 22.9994 121.469 21.5635V15.9596H122.964V20.2947H124.333V21.5775H122.95C122.966 22.5279 122.625 23.4493 121.994 24.1564C121.322 24.7233 120.464 25.0167 119.588 24.9791C119.273 24.9741 118.959 24.9509 118.646 24.9096L119.006 23.6689ZM122.146 14.6072C121.972 14.5978 121.805 14.5372 121.665 14.433C121.524 14.3289 121.417 14.1856 121.357 14.0209C121.296 13.8562 121.285 13.6773 121.324 13.5061C121.363 13.335 121.451 13.1792 121.578 13.0579C121.704 12.9366 121.862 12.855 122.033 12.8234C122.205 12.7917 122.382 12.8112 122.542 12.8796C122.703 12.948 122.84 13.0621 122.937 13.2081C123.034 13.3541 123.086 13.5254 123.088 13.701C123.091 13.8246 123.069 13.9475 123.022 14.0618C122.976 14.1762 122.906 14.2794 122.817 14.3648C122.728 14.4502 122.623 14.5159 122.507 14.5577C122.392 14.5994 122.269 14.6163 122.146 14.6072Z" fill="white"/>
<path d="M129.243 21.5775C128.646 21.5589 128.063 21.3963 127.542 21.1033C126.825 21.4896 126.012 21.6546 125.203 21.5775H124.082V20.2947H125.287C126.421 20.2947 126.642 20.1135 126.642 19.2775V15.1932H128.123V20.0439C128.472 20.2131 128.856 20.2989 129.243 20.2947H130.17V21.5775L129.243 21.5775ZM127.32 13.7987C127.146 13.7892 126.978 13.7286 126.838 13.6244C126.698 13.5203 126.591 13.377 126.53 13.2123C126.47 13.0476 126.458 12.8687 126.498 12.6975C126.537 12.5264 126.625 12.3706 126.751 12.2493C126.877 12.128 127.035 12.0464 127.207 12.0148C127.378 11.9831 127.555 12.0026 127.716 12.071C127.876 12.1394 128.013 12.2536 128.11 12.3995C128.207 12.5455 128.26 12.7168 128.261 12.8924C128.265 13.016 128.242 13.1389 128.196 13.2532C128.149 13.3676 128.079 13.4708 127.99 13.5562C127.902 13.6416 127.796 13.7073 127.681 13.7491C127.565 13.7908 127.442 13.8077 127.32 13.7987Z" fill="white"/>
<path d="M133.71 15.1932V19.1104C133.71 20.7689 132.729 21.5775 130.778 21.5775H129.919V20.2947H130.722C131.898 20.2947 132.216 19.7791 132.216 18.901V15.1932H133.71ZM131.51 13.7987C131.336 13.7892 131.168 13.7286 131.028 13.6244C130.888 13.5203 130.781 13.377 130.72 13.2123C130.66 13.0476 130.649 12.8687 130.688 12.6975C130.727 12.5264 130.815 12.3706 130.941 12.2493C131.067 12.128 131.226 12.0464 131.397 12.0148C131.568 11.9831 131.745 12.0026 131.906 12.071C132.066 12.1394 132.204 12.2536 132.3 12.3995C132.397 12.5455 132.45 12.7168 132.451 12.8924C132.455 13.016 132.432 13.1389 132.386 13.2532C132.339 13.3676 132.269 13.4708 132.18 13.5562C132.092 13.6416 131.986 13.7073 131.871 13.7491C131.755 13.7908 131.632 13.8077 131.51 13.7987ZM133.835 13.7987C133.661 13.7892 133.493 13.7286 133.353 13.6244C133.212 13.5203 133.105 13.377 133.045 13.2123C132.984 13.0476 132.973 12.8687 133.012 12.6975C133.052 12.5264 133.14 12.3706 133.266 12.2493C133.392 12.128 133.55 12.0464 133.722 12.0148C133.893 11.9831 134.07 12.0026 134.23 12.071C134.391 12.1394 134.528 12.2536 134.625 12.3995C134.722 12.5455 134.774 12.7168 134.776 12.8924C134.779 13.016 134.757 13.1389 134.71 13.2532C134.664 13.3676 134.594 13.4708 134.505 13.5562C134.416 13.6416 134.311 13.7073 134.195 13.7491C134.08 13.7908 133.957 13.8077 133.835 13.7987Z" fill="white"/>
</svg>
