<svg width="32" height="22" viewBox="0 0 32 22" fill="none" xmlns="http://www.w3.org/2000/svg">
<rect x="0.550781" width="30.8" height="22" rx="1.93192" fill="#249F58"/>
<path fill-rule="evenodd" clip-rule="evenodd" d="M24.0174 14.6666V13.2H7.88411L10.8174 14.6666H19.6174C19.6174 15.4762 20.603 16.1333 21.8174 16.1333C23.0318 16.1333 24.0174 15.4762 24.0174 14.6666ZM13.3548 5.72876C13.3372 5.72876 13.3108 5.73756 13.277 5.75809C13.1978 5.81089 13.0424 5.97369 13.0365 6.16143C13.0321 6.26849 13.0116 6.26849 13.0805 6.33743C13.1304 6.40783 13.1832 6.40196 13.2829 6.34769C13.3416 6.30369 13.3606 6.27876 13.3812 6.20689C13.4046 6.08956 13.2536 6.26556 13.2345 6.13063C13.2008 6.00743 13.2976 5.95463 13.3885 5.83729C13.3914 5.77863 13.3914 5.73463 13.3548 5.73169V5.72876ZM14.8258 5.73609C14.7965 5.74196 14.7628 5.78009 14.7144 5.86516C14.6806 5.95609 14.5325 6.09396 14.641 6.37849C14.7261 6.55889 14.7628 6.85076 14.7232 7.17783C14.6616 7.27023 14.6498 7.30249 14.5692 7.39489C14.4577 7.51663 14.3345 7.48583 14.2436 7.43889C14.1556 7.38023 14.0881 7.35089 14.0485 7.16609C14.0558 6.87276 14.0734 6.38583 14.0192 6.28316C13.94 6.12476 13.808 6.18049 13.7522 6.22889C13.4838 6.47823 13.3504 6.89329 13.2682 7.22623C13.1949 7.46676 13.1142 7.39636 13.0585 7.29956C12.9221 7.17049 12.9118 6.17023 12.7476 6.33596C12.4836 7.08983 12.8986 7.91556 13.1876 7.83489C13.3929 7.92289 13.5249 7.52689 13.61 7.09423C13.6686 6.97249 13.7126 6.95783 13.742 7.02089C13.7346 7.59583 13.786 7.72489 13.9326 7.89796C14.2612 8.15316 14.534 7.93023 14.556 7.90969L14.8126 7.65449C14.8713 7.59583 14.9446 7.58996 15.0253 7.64276C15.1045 7.71609 15.0942 7.83783 15.26 7.92143C15.4037 7.98009 15.7044 7.93609 15.7733 7.81436C15.8686 7.65303 15.8906 7.59729 15.9346 7.53569C16.0021 7.44769 16.118 7.48729 16.118 7.51516C16.1077 7.56649 16.0402 7.61783 16.0857 7.70583C16.1664 7.76449 16.1854 7.72636 16.2324 7.71316C16.3996 7.63396 16.5257 7.27023 16.5257 7.27023C16.533 7.13529 16.4568 7.14556 16.4084 7.17343C16.3424 7.21303 16.3394 7.22623 16.2764 7.26583C16.1928 7.27756 16.0344 7.33183 15.9566 7.21009C15.876 7.06343 15.876 6.86103 15.8144 6.71143C15.8144 6.70263 15.7073 6.48116 15.8056 6.46796C15.854 6.47676 15.9625 6.50463 15.9786 6.41516C16.0314 6.32716 15.8657 6.07783 15.7528 5.95463C15.656 5.84756 15.521 5.83436 15.3905 5.94289C15.2981 6.02796 15.3128 6.12183 15.2937 6.21129C15.2717 6.31396 15.2761 6.44156 15.3817 6.57796C15.4726 6.75689 15.6384 6.98863 15.5826 7.31423C15.5826 7.31423 15.4873 7.46969 15.3186 7.44916C15.2453 7.43449 15.1309 7.40516 15.0693 6.95049C15.0253 6.60876 15.081 6.12916 14.9373 5.90476C14.9036 5.82116 14.8757 5.73903 14.8288 5.74343L14.8258 5.73609ZM14.3594 5.77423C14.3154 5.77863 14.267 5.82996 14.2274 5.92823C14.1937 6.00449 14.1512 6.39756 14.1585 6.39756C14.1292 6.51489 14.2802 6.56476 14.3492 6.41516C14.4518 6.13649 14.4518 6.01916 14.4577 5.90476C14.443 5.81676 14.4034 5.77276 14.3594 5.77569V5.77423ZM16.0798 5.80356C16.0358 5.80943 15.9992 5.83583 15.986 5.90329C15.9669 6.05876 15.9772 6.14529 16.0036 6.27583C16.0226 6.36383 16.1502 6.50756 16.2118 6.59263C16.5096 6.99303 16.7985 7.39489 17.0742 7.80996C17.1182 8.12089 17.1476 8.42303 17.1696 8.72516C17.2165 9.38516 17.2282 10.2065 17.1886 10.9032C17.3118 10.9076 17.5113 10.7022 17.5802 10.4045C17.6242 9.98796 17.5656 9.14316 17.5597 8.89676L17.545 8.54769C17.8677 9.07569 18.1786 9.63303 18.4837 10.2432C18.5966 10.1904 18.5717 9.56116 18.5072 9.47316C18.2608 8.94516 17.9205 8.42303 17.8134 8.22209C17.7738 8.14876 17.6404 7.94783 17.4834 7.71463C17.4541 7.38023 17.4218 7.09863 17.4013 7.01356C17.35 6.66156 17.545 7.05316 17.5186 6.84929C17.4541 6.49729 17.2605 6.25969 17.0317 5.93703C16.9584 5.83436 16.9584 5.81089 16.8454 5.96343C16.7794 6.11743 16.7794 6.24649 16.8014 6.36676C16.7692 6.32276 16.7325 6.27289 16.6797 6.20836L16.3057 5.89156C16.2544 5.85489 16.1546 5.79916 16.0798 5.80356ZM21.178 5.85783C21.156 5.85489 21.134 5.86516 21.1046 5.90476C21.0533 5.94876 20.999 6.03236 21.002 6.13943C21.0122 6.32276 21.046 6.51196 21.0577 6.69676L21.0724 6.77009C21.0518 6.74663 21.0342 6.72609 21.024 6.71729C20.6617 6.33596 21.1897 6.65276 20.9536 6.36089C20.7556 6.14089 20.6969 6.07343 20.5282 5.94143C20.4402 5.88863 20.3904 5.78303 20.3625 5.96196C20.3508 6.11889 20.339 6.30223 20.3478 6.43423C20.3478 6.50756 20.4256 6.64689 20.4916 6.72756C20.7321 7.02529 20.9785 7.34063 21.2249 7.66916C21.2777 8.33943 21.2909 8.95396 21.3422 9.62569C21.3364 9.91316 21.2484 10.2945 21.1662 10.3297C21.1662 10.3297 21.0372 10.403 20.9521 10.3224C20.889 10.2974 20.6412 9.90729 20.6412 9.90729C20.5136 9.78996 20.4285 9.82369 20.339 9.90729C20.0897 10.1478 19.9753 10.5996 19.8066 10.9105C19.7626 10.9794 19.6409 11.0396 19.5045 10.9046C19.1569 10.4294 19.3578 9.75329 19.3168 9.92783C19.0088 10.2769 19.1437 10.8548 19.2141 10.9794C19.3168 11.1848 19.3989 11.3168 19.5954 11.415C19.7788 11.547 19.9181 11.4664 19.9973 11.371C20.1792 11.1833 20.1821 10.7008 20.2672 10.6054C20.3258 10.4294 20.4769 10.4588 20.5502 10.538C20.6236 10.6406 20.7057 10.7066 20.8098 10.7624C20.98 10.912 21.1824 10.9384 21.3818 10.802C21.5182 10.7257 21.6077 10.626 21.6869 10.4294C21.7749 10.2006 21.7309 8.99796 21.7118 8.32916L22.0932 8.88063C22.146 9.46729 22.1709 10.0466 22.1518 10.601C22.1401 10.711 22.5376 10.2725 22.5332 10.0642C22.5332 9.88383 22.5361 9.71809 22.5332 9.56556C22.7282 9.87356 22.9145 10.186 23.0905 10.5042C23.2005 10.4456 23.1638 9.82516 23.0949 9.74156C22.9101 9.43063 22.6725 9.09623 22.4892 8.83516C22.4525 8.50809 22.4041 8.12236 22.3806 8.00356C22.3469 7.81876 22.3117 7.54156 22.2589 7.32303C22.2442 7.23943 22.2002 6.96663 22.2149 6.94169C22.2354 6.87863 22.3176 6.94169 22.3572 6.87129C22.4158 6.80529 22.1489 6.10863 22.0125 5.91209C21.9641 5.82409 21.8746 5.85343 21.7661 6.00009C21.6634 6.09396 21.7016 6.31103 21.7397 6.51783C21.8394 7.04583 21.9304 7.57969 22.0008 8.11649C21.8688 7.91849 21.7074 7.68089 21.549 7.45356L21.5285 7.35089C21.5285 7.33916 21.508 6.91823 21.4889 6.81849C21.4845 6.77743 21.4742 6.76569 21.5182 6.77156C21.5622 6.80969 21.5681 6.81116 21.596 6.82436C21.6429 6.83023 21.684 6.75396 21.6546 6.68209L21.2293 5.89889C21.2146 5.87983 21.1941 5.86223 21.1706 5.85929L21.178 5.85783ZM8.02197 5.87249C7.94131 5.86956 7.85624 5.91649 7.88997 6.01183C7.86944 6.06316 8.04251 6.23623 8.07331 6.33156C8.09824 6.40049 8.04397 6.61756 8.10264 6.63956C8.15397 6.66156 8.22584 6.48703 8.25224 6.32716C8.26691 6.23916 8.25664 5.93703 8.05131 5.87543C8.04104 5.87249 8.03077 5.87249 8.01904 5.87103L8.02197 5.87249ZM23.0113 5.87249C22.9922 5.87543 22.9702 5.90183 22.938 5.97516C22.8573 6.10716 22.8294 6.34183 22.8617 6.54716C23.0524 7.85249 23.199 9.11676 23.2284 10.2725C23.2108 10.384 23.2049 10.4426 23.155 10.5805C23.0406 10.7272 22.9145 10.909 22.7957 10.997C22.6784 11.085 22.4261 11.1701 22.344 11.2346C22.08 11.3842 22.08 11.5573 22.2912 11.5646C22.6549 11.5206 23.0861 11.4913 23.3824 11.044C23.4616 10.9193 23.5554 10.579 23.5584 10.3693C23.5877 9.15196 23.5437 7.95663 23.3604 7.07516C23.3486 6.98716 23.3105 6.79209 23.3252 6.76716C23.3472 6.70556 23.466 6.77156 23.5085 6.70263C23.5716 6.63809 23.2005 6.16436 23.0714 5.96196C23.045 5.91209 23.0274 5.86956 23.0069 5.87396L23.0113 5.87249ZM19.1936 5.89303C19.1789 5.89596 19.1584 5.91943 19.1173 5.97369C19.0146 6.30516 18.9794 6.57503 19.019 6.78329C19.283 8.14729 19.547 9.38663 19.506 10.6846C19.6292 10.6846 19.7729 10.4016 19.8345 10.12C19.8682 9.73129 19.811 9.49516 19.8022 9.26929C19.792 9.04049 19.5441 7.19249 19.4942 7.02089C19.4326 6.69529 19.7348 6.97689 19.7025 6.78916C19.5969 6.54863 19.3358 6.20249 19.2566 5.99276C19.2273 5.93703 19.2214 5.88569 19.198 5.89009L19.1936 5.89303ZM9.90371 5.91943C9.87437 5.92529 9.84064 5.95169 9.83037 5.99276C9.82304 6.02209 9.84211 6.07049 9.81571 6.08516C9.80104 6.09983 9.74531 6.08956 9.74824 6.01183C9.74824 5.98543 9.72917 5.95903 9.71891 5.94289C9.70717 5.93703 9.69984 5.93556 9.67931 5.93556C9.65437 5.93556 9.65437 5.94289 9.64117 5.96489C9.63531 5.98543 9.62651 6.00596 9.62651 6.02943C9.62357 6.05876 9.61184 6.06609 9.59277 6.07049C9.56931 6.07049 9.57371 6.07343 9.55611 6.06023C9.54144 6.04996 9.52971 6.04556 9.52971 6.02503C9.52971 6.00303 9.52384 5.96636 9.51797 5.95463C9.50771 5.93996 9.49157 5.93409 9.47397 5.92969C9.37717 5.92969 9.37131 6.04409 9.37571 6.08516C9.36837 6.09396 9.36544 6.29049 9.49744 6.34623C9.67344 6.43129 10.0078 6.39463 9.99611 6.10863C9.99611 6.08369 9.98877 5.99863 9.98584 5.97663C9.96824 5.93263 9.93451 5.91796 9.90224 5.92236L9.90371 5.91943ZM12.2885 5.92236C12.2269 5.92529 12.1712 5.94289 12.1272 5.96636C12.0098 6.07929 11.9805 6.25969 12.0744 6.37263C12.1624 6.41663 12.2548 6.50463 12.1946 6.55596C11.9394 6.82729 11.275 7.28343 11.2413 7.36703V7.37583H11.2472V7.37876C11.2809 7.40076 11.6974 7.40076 11.7429 7.37876H11.7458C11.8896 7.32449 12.5672 6.55009 12.5672 6.55009C12.532 6.52076 12.4997 6.49729 12.4645 6.46649C12.4264 6.43423 12.4308 6.40196 12.4645 6.36969C12.6317 6.27289 12.5789 6.05729 12.4909 5.95903C12.4176 5.92676 12.3501 5.91503 12.2885 5.91943V5.92236ZM18.5218 5.92236C18.5042 5.92676 18.4822 5.95169 18.4485 6.02503C18.3678 6.15703 18.3136 6.38436 18.3209 6.59703C18.494 7.79969 18.5468 8.85129 18.6612 10.054C18.67 10.1713 18.6524 10.3385 18.5761 10.406C18.2886 10.7052 17.8765 11.0718 17.4277 11.242C17.3793 11.2962 17.548 11.5265 17.765 11.5265C18.1288 11.4825 18.4485 11.2801 18.7477 10.7418C18.8254 10.6172 18.9648 10.3488 18.9677 10.1405C18.997 8.92023 18.909 7.96983 18.7242 7.08983C18.714 7.00183 18.7213 6.89916 18.736 6.87569C18.7594 6.84636 18.8386 6.87569 18.8826 6.80676C18.9442 6.74223 18.7154 6.21569 18.5864 6.01476C18.56 5.96343 18.5453 5.92236 18.5218 5.92383V5.92236ZM8.86531 5.96196C8.81544 5.96783 8.76851 6.00596 8.74504 6.06463C8.73771 6.25529 8.73624 6.44596 8.75971 6.62489C8.84771 6.93729 8.87264 7.21156 8.91517 7.52983C8.92984 7.95809 8.66877 7.71463 8.68051 7.50343C8.73917 7.22769 8.72451 6.79503 8.67171 6.68503C8.62771 6.57503 8.58077 6.54863 8.47811 6.56769C8.39744 6.56183 8.18771 6.78769 8.12904 7.16903C8.12904 7.16903 8.07917 7.36263 8.05864 7.53569C8.02931 7.73076 7.90024 7.87009 7.80931 7.50929C7.73157 7.24529 7.68464 6.59996 7.55411 6.74956C7.51597 7.25409 7.47197 8.14289 7.90024 8.23383C8.41944 8.28369 8.13197 7.35676 8.31971 7.18809C8.35637 7.10743 8.42237 7.10596 8.42677 7.21009V7.99769C8.42091 8.25289 8.58811 8.32916 8.72011 8.38196C8.85651 8.37169 8.94597 8.37609 8.99877 8.50809L9.06477 9.87209C9.06477 9.87209 9.37864 9.96009 9.39331 9.10503C9.40797 8.60196 9.29064 8.18103 9.35957 8.08276C9.36251 7.98596 9.48571 7.98009 9.57077 8.02849C9.70717 8.12383 9.76731 8.24116 9.97851 8.19423C10.3012 8.10623 10.4918 7.95076 10.4962 7.70436C10.4816 7.46969 10.4522 7.23503 10.3496 7.00036C10.3642 6.95929 10.2909 6.84929 10.3056 6.80676C10.3613 6.89476 10.4493 6.88889 10.4669 6.80676C10.4141 6.62636 10.329 6.45476 10.1912 6.38143C10.0782 6.27876 9.91251 6.30076 9.85091 6.50903C9.82157 6.74956 9.93891 7.03409 10.1149 7.26729C10.1501 7.35823 10.2029 7.50929 10.1794 7.64569C10.087 7.69849 9.99464 7.67503 9.91544 7.59436C9.91544 7.59436 9.66171 7.40369 9.66171 7.35969C9.73064 6.92703 9.67637 6.87569 9.63971 6.75836C9.61331 6.59116 9.53411 6.53836 9.47104 6.42396C9.40651 6.35503 9.31997 6.35503 9.28037 6.42396C9.16597 6.61903 9.21877 7.03996 9.30091 7.22623C9.35957 7.39929 9.45051 7.50783 9.40797 7.50783C9.37277 7.60316 9.29944 7.58116 9.24664 7.46823C9.17331 7.23356 9.15571 6.88743 9.15571 6.73049C9.13371 6.53689 9.10877 6.12183 8.97971 6.01623C8.94597 5.96929 8.90637 5.95316 8.86677 5.95756L8.86531 5.96196ZM10.6869 5.96196C10.662 5.96783 10.6326 5.98249 10.5989 5.99129C10.4889 6.02503 10.3862 6.12036 10.4185 6.30516C10.5505 7.09716 10.6341 7.70289 10.7646 8.49489C10.7837 8.58876 10.706 8.71049 10.6062 8.70023C10.4361 8.58289 10.3936 8.34823 10.1032 8.35996C9.89197 8.35996 9.65144 8.59169 9.62211 8.81169C9.58691 8.98769 9.57517 9.17836 9.62211 9.33089C9.76877 9.50689 9.94771 9.48929 10.1032 9.44823C10.2308 9.39689 10.3378 9.27223 10.3818 9.30156C10.4112 9.34996 10.3789 9.76209 9.78051 10.0789C9.41091 10.2461 9.11757 10.2842 8.95917 9.98503C8.86237 9.79729 8.96797 9.08156 8.72744 9.24583C8.01464 11.0821 10.395 11.3373 10.6605 9.32209C10.6781 9.26343 10.7294 9.20769 10.7676 9.22236C10.7822 9.22969 10.7969 9.25169 10.8028 9.29276C10.747 11.1173 8.96064 11.2434 8.65851 10.6685C8.58224 10.5336 8.56024 10.2314 8.55291 10.0525C8.53824 9.94249 8.51184 9.87943 8.47957 9.85449C8.40624 9.80023 8.30944 9.94249 8.28891 10.1874C8.25957 10.3854 8.26691 10.4397 8.26691 10.6304C8.36371 12.0721 10.662 11.4517 11.036 10.2637C11.2208 9.64769 11.0316 9.18276 11.0946 9.12556L11.099 9.12263H11.1034L11.1108 9.11969C11.3396 9.36609 11.6593 9.14903 11.7297 9.06543C11.759 9.02143 11.8353 8.99209 11.8881 9.05076C12.0641 9.17689 12.378 9.11676 12.4425 8.88943C12.4806 8.66943 12.5129 8.44356 12.5202 8.20743C12.4029 8.24409 12.309 8.27049 12.2709 8.31009C12.2621 8.32036 12.2562 8.33209 12.2533 8.34383L12.224 8.53889C12.224 8.54623 12.221 8.55063 12.2181 8.55356C12.2137 8.56383 12.2034 8.57116 12.1976 8.57556C12.1565 8.59756 12.0846 8.58583 12.0802 8.52569C12.026 8.27636 11.7986 8.24409 11.6608 8.63276C11.5684 8.70609 11.3968 8.72076 11.3821 8.60929C11.4041 8.34823 11.2985 8.31303 11.0888 8.43623L10.8864 6.91089C10.9744 6.90649 11.0536 6.96956 11.1357 6.86983C11.0477 6.59996 10.8644 6.05143 10.7602 5.99863H10.7573L10.7426 5.98396C10.7426 5.98103 10.7382 5.97956 10.7353 5.97809L10.7294 5.96929C10.7236 5.96929 10.7177 5.96636 10.7148 5.96489C10.7045 5.96196 10.6957 5.96196 10.6854 5.96196H10.6869ZM17.7885 5.96783C17.6976 5.96489 17.5978 6.02209 17.636 6.13649C17.6125 6.19956 17.831 6.41076 17.8662 6.52516C17.9293 6.70116 17.8178 6.87276 17.8838 6.89769C17.9454 6.92409 18.0305 6.71436 18.0598 6.51929C18.098 6.36089 17.9865 6.03823 17.8252 5.97223L17.7885 5.96929V5.96783ZM12.2548 6.15996C12.2958 6.15703 12.3457 6.19516 12.3721 6.24796C12.397 6.30663 12.3838 6.36089 12.3428 6.37116C12.2988 6.38143 12.243 6.34476 12.2166 6.28609C12.1902 6.22743 12.202 6.17316 12.246 6.16289H12.2548V6.15996ZM22.517 6.42689C22.4334 6.42396 22.341 6.48556 22.3792 6.61023C22.3586 6.67769 22.5552 6.90649 22.5889 7.03263C22.6182 7.12063 22.5449 7.40809 22.6036 7.43449C22.6593 7.46383 22.7356 7.23503 22.7649 7.02383C22.7825 6.90649 22.6974 6.50316 22.5522 6.43129C22.542 6.42836 22.5302 6.42543 22.5185 6.42543L22.517 6.42689ZM16.841 6.56769C16.8513 6.60143 16.8586 6.63516 16.863 6.67036C16.8806 6.74369 16.8953 6.81703 16.91 6.89329C16.8454 6.80236 16.7926 6.72903 16.7677 6.70263C16.621 6.52663 16.7706 6.58823 16.841 6.56769ZM18.1508 7.21009C18.1185 7.21596 18.0877 7.24383 18.0774 7.28783C18.0686 7.31423 18.0892 7.36116 18.0628 7.37583C18.0481 7.39049 17.9894 7.38169 17.9938 7.30249C17.9938 7.27609 17.9748 7.24823 17.9645 7.23356C17.9528 7.22623 17.9454 7.22329 17.9249 7.22329C17.9 7.22329 17.9 7.23063 17.8868 7.25263C17.8809 7.27316 17.8721 7.29369 17.8721 7.31863C17.8721 7.34796 17.8604 7.35676 17.8398 7.36263C17.8164 7.36263 17.8208 7.36263 17.8017 7.35236C17.79 7.33769 17.7768 7.33476 17.7768 7.31423C17.7768 7.29223 17.7724 7.25849 17.765 7.24383C17.7548 7.22916 17.7401 7.22476 17.721 7.21889C17.6257 7.21889 17.6184 7.33036 17.6242 7.37143C17.6184 7.38023 17.614 7.57969 17.746 7.63543C17.9249 7.71903 18.2593 7.67943 18.2446 7.39489C18.2446 7.36996 18.2373 7.28489 18.2358 7.26289C18.2168 7.21889 18.183 7.20423 18.1522 7.20863L18.1508 7.21009ZM12.1814 7.26876C12.1609 7.26876 12.1316 7.27463 12.0978 7.29516C11.9409 7.38023 11.8808 7.63249 11.9805 7.77916C12.0685 7.91116 12.2152 7.86276 12.2342 7.86276C12.3882 7.88329 12.4792 7.57529 12.4792 7.57529C12.4792 7.57529 12.4836 7.48729 12.3032 7.65156C12.224 7.66623 12.2152 7.63689 12.1946 7.59289C12.177 7.51516 12.18 7.43156 12.2166 7.35383C12.2342 7.30543 12.2166 7.27463 12.1814 7.27169V7.26876ZM20.6192 7.30836C20.5312 7.30396 20.4388 7.36116 20.4138 7.47996C20.4138 7.55036 20.4461 7.58849 20.4402 7.65303C20.4329 7.68969 20.3962 7.71169 20.3053 7.67063C20.32 7.65596 20.2466 7.55623 20.2466 7.55623C20.1777 7.51223 20.0853 7.55623 20.0237 7.59729C19.99 7.65889 19.965 7.76303 20.0032 7.86863C20.1029 8.05489 20.4476 8.37169 20.6118 8.37463C20.6148 8.20743 20.6309 7.98449 20.6412 7.84663C20.6441 7.79383 20.6558 7.73663 20.7072 7.72343C20.757 7.70876 20.8436 7.77329 20.8436 7.71903C20.8348 7.61343 20.8142 7.45503 20.7556 7.38169C20.7233 7.33769 20.672 7.31129 20.6206 7.30836H20.6192ZM13.6334 7.89063L13.629 7.89503C13.629 7.89503 13.6261 7.89503 13.6246 7.89796C13.607 7.91263 13.5865 7.94196 13.541 7.97129C13.4633 8.05929 13.4501 8.12236 13.453 8.29836C13.4589 8.31743 13.5997 8.71343 13.7214 8.99063C13.8036 9.27956 13.8784 9.61103 13.8241 9.92343C13.6334 10.337 13.2521 10.7081 12.881 10.9105C12.6904 10.9692 12.529 10.9486 12.485 10.9076C12.3765 10.8342 12.375 10.7022 12.3824 10.6817V10.6773C12.6933 10.4602 13.0497 10.2842 13.3284 9.69903C13.4105 9.47463 13.4369 9.33969 13.3548 8.99503C13.3225 8.86303 13.2814 8.76036 13.1934 8.66649H13.1964C13.2492 8.64156 13.387 8.74276 13.409 8.68116C13.3753 8.51396 13.2624 8.29249 13.1377 8.17809C13.0262 8.07543 12.903 8.06516 12.8033 8.15756C12.6889 8.22209 12.6654 8.45089 12.7197 8.65036C12.7813 8.79996 12.947 8.82636 13.0644 9.12996C13.0673 9.15049 13.104 9.35729 13.0453 9.44236C12.9954 9.59196 12.378 10.0789 12.334 10.1082L12.3296 10.1112L12.3266 10.1141H12.3237H12.3208V10.1097C12.3178 10.098 12.3208 10.0657 12.3208 10.0173C12.3164 9.92636 12.3545 9.71956 12.3501 9.68289V9.67996C12.1448 9.81196 12.0758 10.2153 12.0392 10.3356C11.5214 10.692 10.9348 10.9574 10.596 11.3182C10.42 11.5969 11.8104 11.0044 11.9717 10.9325L11.9761 10.9369C12.0084 10.9706 12.0098 11.088 12.1022 11.195C12.2489 11.3901 12.554 11.5104 12.8532 11.4356C13.3548 11.2552 13.6452 10.9134 13.9385 10.5336C13.9796 10.4749 14.0456 10.425 14.1072 10.472C14.3081 10.9237 14.8918 11.2464 15.6442 11.2786C15.8202 11.0674 15.7366 10.9633 15.6662 10.9193C15.6442 10.9046 15.2922 10.7668 15.2365 10.6304C15.2028 10.5042 15.2864 10.3913 15.4536 10.3077C15.9376 10.249 16.4128 10.183 16.8733 10.0349C16.8777 9.87943 16.9686 9.64916 17.0302 9.54796C17.0742 9.47903 17.0992 9.47169 17.1094 9.46289V9.45996H17.1124V9.45556V9.44089L17.0332 9.39396L15.4888 9.38809C15.4697 9.38076 15.4565 9.37343 15.4477 9.36609L15.4448 9.36169C15.4448 9.36169 15.4418 9.36169 15.4418 9.35876C15.4418 9.35583 15.4389 9.35583 15.4389 9.35583V9.35729V9.35436V9.35143V9.34849L15.4418 9.34409C15.4492 9.33529 15.4682 9.32503 15.4902 9.31476C15.8598 9.26636 16.514 9.15929 16.558 8.53009C16.5506 8.20156 16.4172 7.98743 16.0153 7.92876C15.719 7.95076 15.5078 8.23676 15.5416 8.55063C15.5269 8.63423 15.5709 8.79996 15.4829 8.81903C14.9168 8.87183 14.2978 9.22676 14.2773 9.48196H14.2744H14.2714H14.2685C14.2685 9.48489 14.2656 9.48489 14.2641 9.48489H14.2582H14.2553H14.2494C14.2128 9.47316 14.1658 9.41156 14.1732 9.32796C14.1512 8.88796 14.0074 8.38929 13.7845 8.00796C13.7038 7.92729 13.6672 7.89503 13.6466 7.89063H13.6422H13.6378H13.6349H13.6334ZM15.1118 8.12236C15.0825 8.12823 15.0488 8.15463 15.0385 8.19863C15.0312 8.22796 15.0532 8.27489 15.0268 8.28956C15.0121 8.30423 14.9534 8.29543 14.9564 8.21623C14.9564 8.19129 14.9373 8.16343 14.927 8.14729C14.9153 8.13996 14.908 8.13849 14.8889 8.13849C14.864 8.13849 14.8625 8.14436 14.8493 8.16489C14.842 8.18543 14.8346 8.20889 14.8346 8.23089C14.8317 8.26023 14.82 8.26903 14.8009 8.27196C14.7774 8.27196 14.7833 8.27636 14.7642 8.26463C14.7525 8.25289 14.7378 8.24703 14.7378 8.22649C14.7378 8.20449 14.7334 8.16783 14.7276 8.15316C14.7173 8.14289 14.7012 8.13849 14.6836 8.13263C14.5853 8.13263 14.5809 8.24263 14.5853 8.28516C14.578 8.29249 14.5736 8.49049 14.7056 8.54623C14.8816 8.63129 15.3069 8.58143 15.2042 8.30716C15.2042 8.28223 15.1969 8.19716 15.1954 8.17516C15.1764 8.13116 15.1426 8.11649 15.1104 8.12089L15.1118 8.12236ZM21.0738 8.36729H21.0592C21.0592 8.36729 20.2349 8.95396 20.2158 8.97449C20.1337 9.04783 20.1748 9.30156 20.2158 9.27223C20.2745 9.29423 21.1032 8.73249 21.087 8.66649C21.1237 8.66943 21.1413 8.37756 21.0724 8.36583L21.0738 8.36729ZM15.8906 8.45529C15.9229 8.45089 15.9669 8.46263 16.008 8.48463C16.071 8.52276 16.1106 8.57556 16.1033 8.61663V8.62249C16.1004 8.62249 16.1004 8.62249 16.1004 8.62543V8.62836C16.1004 8.62836 16.0974 8.62836 16.0974 8.63129C16.0974 8.63423 16.093 8.63716 16.0901 8.64009C16.0608 8.66943 15.9933 8.66356 15.9288 8.62543C15.8672 8.59169 15.8305 8.53743 15.8334 8.49929V8.49489L15.8408 8.48023C15.8408 8.48023 15.8408 8.47729 15.8437 8.47583L15.851 8.46703C15.8613 8.45969 15.8745 8.45236 15.8906 8.45236V8.45529ZM8.67757 8.60196C8.25224 8.61076 7.62597 9.16223 7.60984 9.46729L8.95917 8.82196C8.88584 8.71049 8.95477 8.61076 8.67757 8.60196ZM10.0606 8.79263C10.1017 8.79556 10.1457 8.81609 10.1692 8.87476C10.1897 8.92903 10.1692 8.98476 10.1442 9.01263V9.01703C10.1237 9.04049 10.0621 9.03169 10.0166 9.03169C9.96237 9.02876 9.93597 9.01996 9.90371 8.97596C9.88611 8.92463 9.93304 8.87623 9.95504 8.84103L9.96531 8.82636C9.97997 8.81169 10.0093 8.79996 10.0386 8.79703L10.0577 8.79409L10.0606 8.79263ZM20.914 8.96423C20.8362 8.97303 20.7644 9.04489 20.7966 9.15929C20.7761 9.22676 20.8993 9.46289 20.933 9.58756C20.9624 9.67556 20.8949 9.92929 20.955 9.95423C21.0108 9.98356 21.156 9.80756 21.1516 9.58169C21.1662 9.46436 21.1105 9.03903 20.9653 8.96863C20.9477 8.96423 20.9301 8.96276 20.9125 8.96423H20.914ZM11.6974 9.38076C11.63 9.38516 11.5698 9.42036 11.5977 9.51569C11.5933 9.58316 11.7884 9.66676 11.7986 9.82369C11.825 9.89116 11.7546 10.1024 11.8133 10.12C11.8661 10.142 11.9394 9.97329 11.9673 9.82076C11.982 9.73569 11.8998 9.43943 11.762 9.38516C11.74 9.37929 11.718 9.37783 11.696 9.37929L11.6974 9.38076ZM14.4548 9.75623H14.4724C14.6454 9.80316 14.8977 9.80903 15.1177 9.82956C15.2981 9.84423 15.3861 9.98209 15.2204 10.0422C15.0532 10.098 14.8933 10.1449 14.8933 10.3825C14.9138 10.4998 14.908 10.5614 14.8904 10.5878C14.8904 10.5922 14.886 10.5952 14.8845 10.5966C14.8845 10.5966 14.8845 10.5996 14.8816 10.5996V10.6025H14.8772L14.8669 10.6069H14.8596C14.82 10.6142 14.7628 10.5776 14.7202 10.5541C14.6176 10.4808 14.3316 10.3048 14.2905 9.92343C14.2846 9.83543 14.3492 9.76209 14.4518 9.75476L14.4548 9.75623ZM7.71691 10.0496C7.70664 10.0496 7.68757 10.0818 7.65824 10.1185C7.40304 10.5218 7.37957 11.1246 7.52037 11.3065C7.59371 11.3901 7.71691 11.4282 7.80784 11.4018C7.96917 11.3329 8.03811 11.0088 7.99851 10.8914C7.94717 10.8078 7.90464 10.7946 7.85184 10.865C7.73891 11.0924 7.69051 10.9354 7.68317 10.8064C7.66557 10.5673 7.68904 10.3444 7.71544 10.1684C7.73011 10.0804 7.73011 10.0466 7.71544 10.0466L7.71691 10.0496ZM16.3658 10.5805C16.3468 10.5805 16.3277 10.5834 16.3072 10.5952C16.3028 10.5952 16.1253 10.7125 16.0681 10.7976C16.0329 10.824 16.0388 10.846 16.0476 10.8929C16.074 10.956 16.1209 10.9369 16.1766 10.9076C16.25 10.8958 16.2837 10.9442 16.2793 11.0308C16.2456 11.1408 16.294 11.1804 16.294 11.1877C16.294 11.1936 16.3629 11.2537 16.445 11.2068C16.6166 11.1408 16.7237 11.0748 16.9657 11.0234C17.0288 11.0234 17.0244 10.8533 16.9246 10.8474C16.7926 10.8533 16.6753 10.8621 16.5433 10.9648C16.4626 10.9824 16.4494 10.9325 16.4304 10.8885C16.4098 10.78 16.4773 10.7037 16.4626 10.6216C16.4656 10.626 16.4216 10.5864 16.3644 10.5834L16.3658 10.5805ZM21.904 10.7858L21.7866 10.7976C21.7338 10.8078 21.7162 10.8313 21.706 10.8958C21.7104 10.9912 21.769 10.9868 21.8306 11.0249C21.8658 11.0689 21.8893 11.11 21.8277 11.1862C21.769 11.2376 21.7294 11.2669 21.6708 11.3182C21.6458 11.3652 21.6268 11.4356 21.7118 11.459C21.8658 11.503 22.2222 11.2713 22.2222 11.2684C22.2809 11.2244 22.2604 11.1408 22.256 11.1408C22.2208 11.1026 22.1445 11.1261 22.0946 11.1188C22.0697 11.1188 21.992 11.107 22.0272 11.0366C22.0594 10.9926 22.0712 10.9677 22.0932 10.9134C22.1152 10.8606 22.0932 10.8254 22.0081 10.7961C21.9641 10.7873 21.9348 10.7844 21.901 10.7858H21.904ZM19.7729 16.4472C20.1689 16.4662 20.5385 16.4516 20.9316 16.4706C20.9961 16.5234 20.9653 16.6466 20.9242 16.6672L20.9169 16.6701H20.9125H20.9066L20.5752 16.6613V16.6422C20.5429 16.5513 20.3229 16.5572 20.2701 16.6276V16.632C20.2672 16.632 20.2657 16.6364 20.2657 16.6378L20.2628 16.6452V16.6628C20.0868 16.6848 19.9328 16.6569 19.7597 16.651C19.7084 16.588 19.7157 16.475 19.7744 16.4457L19.7729 16.4472Z" fill="white"/>
</svg>
