<svg width="192" height="64" viewBox="0 0 192 64" fill="none" xmlns="http://www.w3.org/2000/svg">
<rect width="192" height="64" fill="#2A2A2A"/>
<path d="M151.818 49.2885H154.466V29.3861H151.818V49.2885ZM175.668 36.5553L172.633 45.184H172.542L169.392 36.5553H166.539L171.263 48.6155L168.57 55.3239H171.333L178.613 36.5553H175.668ZM160.652 47.0279C159.783 47.0279 158.574 46.5416 158.574 45.3377C158.574 43.8015 160.081 43.2126 161.381 43.2126C162.546 43.2126 163.092 43.4943 163.801 43.8787C163.595 45.722 162.18 47.0279 160.652 47.0279ZM160.971 36.1199C159.054 36.1199 157.069 37.0677 156.247 39.1672L158.597 40.268C159.099 39.1672 160.034 38.8084 161.016 38.8084C162.386 38.8084 163.778 39.7307 163.801 41.3694V41.5739C163.321 41.2667 162.295 40.8059 161.039 40.8059C158.506 40.8059 155.926 42.3674 155.926 45.2866C155.926 47.9496 158.004 49.6653 160.331 49.6653C162.112 49.6653 163.092 48.7692 163.71 47.7195H163.801V49.2555H166.356V41.6249C166.356 38.092 164.006 36.1199 160.971 36.1199ZM144.606 38.9781H140.84V32.1561H144.606C146.586 32.1561 147.71 33.9949 147.71 35.567C147.71 37.1094 146.586 38.9781 144.606 38.9781ZM144.538 29.3861H138.193V49.2885H140.84V41.7481H144.538C147.473 41.7481 150.358 39.3643 150.358 35.567C150.358 31.7698 147.473 29.3861 144.538 29.3861ZM109.94 47.0316C108.111 47.0316 106.579 45.3133 106.579 42.9533C106.579 40.5684 108.111 38.824 109.94 38.824C111.746 38.824 113.163 40.5684 113.163 42.9533C113.163 45.3133 111.746 47.0316 109.94 47.0316ZM112.98 37.6698H112.889C112.295 36.8749 111.151 36.1567 109.711 36.1567C106.693 36.1567 103.927 39.1317 103.927 42.9533C103.927 46.7493 106.693 49.6989 109.711 49.6989C111.151 49.6989 112.295 48.9806 112.889 48.1604H112.98V49.1349C112.98 51.7257 111.746 53.1107 109.757 53.1107C108.134 53.1107 107.128 51.8022 106.716 50.6995L104.407 51.7767C105.07 53.572 106.831 55.778 109.757 55.778C112.866 55.778 115.495 53.7257 115.495 48.7244V36.5671H112.98V37.6698ZM117.324 49.2885H119.976V29.3854H117.324V49.2885ZM123.885 42.7226C123.817 40.1062 125.691 38.7729 127.04 38.7729C128.093 38.7729 128.984 39.3624 129.28 40.2096L123.885 42.7226ZM132.116 40.4657C131.613 38.952 130.081 36.1567 126.949 36.1567C123.839 36.1567 121.256 38.9011 121.256 42.9278C121.256 46.7239 123.817 49.6989 127.246 49.6989C130.013 49.6989 131.613 47.8009 132.276 46.6982L130.218 45.159C129.533 46.2878 128.595 47.0316 127.246 47.0316C125.897 47.0316 124.937 46.3389 124.32 44.9799L132.389 41.235L132.116 40.4657ZM67.8202 38.2343V41.1068H73.947C73.7641 42.7226 73.284 43.9023 72.5523 44.7231C71.661 45.7237 70.2664 46.8264 67.8202 46.8264C64.0479 46.8264 61.0989 43.4153 61.0989 39.1833C61.0989 34.9514 64.0479 31.5398 67.8202 31.5398C69.855 31.5398 71.3406 32.4377 72.4381 33.5919L74.2441 31.5659C72.7125 29.924 70.6776 28.6673 67.8202 28.6673C62.6532 28.6673 58.3096 33.3867 58.3096 39.1833C58.3096 44.9799 62.6532 49.6989 67.8202 49.6989C70.6095 49.6989 72.7126 48.6735 74.3584 46.7493C76.0502 44.8513 76.5762 42.184 76.5762 40.0298C76.5762 39.3624 76.5307 38.7474 76.4387 38.2343H67.8202ZM83.5419 47.0316C81.7126 47.0316 80.135 45.3388 80.135 42.9278C80.135 40.4912 81.7126 38.824 83.5419 38.824C85.3705 38.824 86.9481 40.4912 86.9481 42.9278C86.9481 45.3388 85.3705 47.0316 83.5419 47.0316ZM83.5419 36.1567C80.2037 36.1567 77.483 39.0036 77.483 42.9278C77.483 46.8264 80.2037 49.6989 83.5419 49.6989C86.8794 49.6989 89.6 46.8264 89.6 42.9278C89.6 39.0036 86.8794 36.1567 83.5419 36.1567ZM96.758 47.0316C94.9293 47.0316 93.3516 45.3388 93.3516 42.9278C93.3516 40.4912 94.9293 38.824 96.758 38.824C98.5867 38.824 100.164 40.4912 100.164 42.9278C100.164 45.3388 98.5867 47.0316 96.758 47.0316ZM96.758 36.1567C93.4199 36.1567 90.6998 39.0036 90.6998 42.9278C90.6998 46.8264 93.4199 49.6989 96.758 49.6989C100.096 49.6989 102.816 46.8264 102.816 42.9278C102.816 39.0036 100.096 36.1567 96.758 36.1567Z" fill="white"/>
<path d="M101.252 15.0516C101.008 15.4453 100.673 15.8725 100.246 16.3346C99.7832 15.9242 99.409 15.5448 99.1246 15.1971C99.6585 14.5988 100.022 14.1711 100.216 13.9149C100.545 14.3198 100.891 14.6983 101.252 15.0516ZM100.009 24.6207C99.1191 24.6207 98.4262 24.3346 97.9279 23.7606C97.4301 23.1885 97.1807 22.3769 97.1807 21.3284C97.1807 20.992 97.2001 20.6749 97.2388 20.3744C97.2766 20.0759 97.3598 19.6388 97.4855 19.0623L98.0582 19.2164C97.9402 19.7295 97.8818 20.1449 97.8818 20.4646C97.8818 21.3196 98.0731 21.9851 98.4546 22.4608C98.8353 22.9371 99.3657 23.1755 100.046 23.1755C100.82 23.1755 101.589 22.9645 102.357 22.543C103.125 22.1207 103.637 21.6021 103.896 20.9864C103.216 19.3159 102.875 18.2015 102.875 17.6431C102.875 17.3402 102.951 17.0665 103.104 16.8221C103.256 16.5771 103.521 16.3291 103.896 16.0778C103.942 16.4889 104.061 17.2445 104.254 18.344L104.262 18.4124C104.608 18.6057 104.986 18.7034 105.398 18.7034L105.527 18.8489V19.8919L105.398 20.0374C105.047 20.0374 104.732 19.9658 104.453 19.8234L104.476 20.3278C104.476 21.0461 104.272 21.7332 103.866 22.3887C103.46 23.0441 102.902 23.5803 102.197 23.9963C101.491 24.4123 100.762 24.6207 100.009 24.6207Z" fill="white"/>
<path d="M101.253 15.0516L101.137 14.9608C100.9 15.3426 100.571 15.7637 100.149 16.2201L100.247 16.3346L100.336 16.2096C99.8765 15.8029 99.5079 15.4284 99.2307 15.0895L99.1259 15.1971L99.2263 15.3097C99.7618 14.7096 100.125 14.2817 100.325 14.0174L100.217 13.9149L100.112 14.0217C100.446 14.4316 100.794 14.8141 101.16 15.1716L101.253 15.0516L101.137 14.9608L101.253 15.0516L101.347 14.9315C100.989 14.5821 100.648 14.2076 100.322 13.8072L100.213 13.6741L100.109 13.8115C99.9203 14.061 99.5578 14.4875 99.0256 15.0845L98.9297 15.1928L99.0218 15.3047C99.3128 15.661 99.6924 16.0453 100.159 16.4596L100.257 16.5454L100.346 16.4491C100.777 15.982 101.119 15.5478 101.37 15.143L101.442 15.0255L101.347 14.9315L101.253 15.0516ZM100.011 24.6207V24.4615C99.1465 24.4602 98.499 24.1872 98.0305 23.6492C97.565 23.1138 97.3244 22.3501 97.3239 21.3284C97.3239 20.9988 97.3427 20.689 97.3803 20.3973L97.3809 20.3943L97.3803 20.3967C97.4164 20.1089 97.499 19.6734 97.6243 19.1001L97.4868 19.0623L97.4536 19.217L98.0261 19.3713L98.0595 19.2164L97.922 19.1766C97.8022 19.6978 97.7412 20.1238 97.7412 20.4645C97.7406 21.3451 97.9397 22.0553 98.3498 22.5671C98.759 23.0815 99.3394 23.3364 100.048 23.3346C100.844 23.3346 101.636 23.1169 102.42 22.6853C103.206 22.2537 103.748 21.7133 104.026 21.0541L104.054 20.9875L104.027 20.9203C103.348 19.2606 103.014 18.1393 103.018 17.6431C103.019 17.3707 103.085 17.133 103.221 16.913C103.355 16.6971 103.604 16.4583 103.97 16.2146L103.898 16.0778L103.757 16.0977C103.803 16.5167 103.923 17.273 104.116 18.375L104.255 18.3439L104.114 18.3657L104.123 18.434L104.133 18.5175L104.2 18.5547C104.565 18.7599 104.967 18.8626 105.4 18.8626V18.7034L105.299 18.8153L105.386 18.9142V19.8258L105.299 19.9248L105.4 20.0374V19.8782C105.065 19.8782 104.772 19.8104 104.513 19.6785L104.302 19.5703L104.335 20.3359L104.477 20.3278H104.335C104.334 21.0119 104.143 21.6641 103.751 22.2979C103.359 22.9303 102.82 23.4496 102.133 23.8551C101.444 24.2599 100.74 24.4609 100.011 24.4615V24.6207V24.7799C100.786 24.7799 101.539 24.564 102.264 24.1375C102.987 23.7115 103.563 23.1579 103.984 22.4794C104.404 21.8023 104.619 21.0802 104.619 20.3278V20.3239L104.597 19.8153L104.455 19.8234L104.396 19.9683C104.695 20.1213 105.031 20.1966 105.4 20.1966H105.459L105.629 20.0044L105.67 19.9578V18.8489V18.783L105.5 18.5908L105.459 18.5442H105.4C105.007 18.5442 104.652 18.4522 104.327 18.2699L104.263 18.4124L104.404 18.3912L104.396 18.3227L104.395 18.3178L104.394 18.3134C104.202 17.2152 104.083 16.4602 104.038 16.0584L104.011 15.8166L103.825 15.9409C103.44 16.1996 103.16 16.457 102.988 16.7307C102.82 17.0006 102.734 17.3104 102.735 17.6431C102.738 18.2643 103.087 19.3713 103.768 21.0523L103.898 20.9864L103.77 20.9186C103.528 21.4907 103.046 21.987 102.296 22.3998C101.544 22.8121 100.798 23.0162 100.048 23.0162C99.3954 23.0143 98.9142 22.7935 98.5611 22.3544C98.2091 21.9153 98.0256 21.2948 98.025 20.4645C98.025 20.1667 98.0805 19.7612 98.1963 19.2562L98.2323 19.0989L97.5201 18.9073L97.3826 18.8706L97.3488 19.0242C97.2224 19.6032 97.1381 20.0436 97.0999 20.3526V20.3513C97.0601 20.6599 97.04 20.9851 97.04 21.3284C97.0389 22.4036 97.2977 23.2636 97.8272 23.872C98.3559 24.4814 99.0949 24.781 100.011 24.7799V24.6207Z" fill="white"/>
<path d="M110.715 18.7037C110.694 17.9798 110.572 17.287 110.349 16.6253C110.126 15.9643 109.904 15.634 109.687 15.634C109.487 15.634 109.303 15.6994 109.13 15.8306C108.956 15.9618 108.784 16.164 108.611 16.4375C108.438 16.7112 108.205 17.1727 107.909 17.823C108.641 18.2728 109.577 18.5668 110.715 18.7037ZM105.471 20.0377L105.341 19.8922V18.8493L105.471 18.7037C105.867 18.7037 106.201 18.5961 106.473 18.3834C106.744 18.1688 106.98 17.8429 107.178 17.404L107.492 16.7024C107.892 15.7448 108.284 15.0694 108.668 14.6764C109.051 14.2827 109.473 14.0862 109.93 14.0862C110.235 14.0862 110.539 14.2944 110.841 14.7106C111.143 15.126 111.387 15.6626 111.573 16.3174C111.758 16.973 111.851 17.606 111.851 18.2161C111.851 18.575 111.791 18.9021 111.675 19.1951C111.559 19.4885 111.352 19.769 111.059 20.0377C110.432 20.0377 109.768 19.94 109.064 19.7465C108.36 19.5533 107.773 19.302 107.3 18.9941C107.056 19.3648 106.79 19.6316 106.499 19.7932C106.211 19.9568 105.867 20.0377 105.471 20.0377Z" fill="white"/>
<path d="M110.716 18.7027L110.858 18.6977C110.836 17.957 110.712 17.2462 110.483 16.5683C110.247 15.903 110.045 15.5031 109.688 15.4738C109.46 15.4733 109.245 15.5497 109.051 15.6978C108.858 15.8446 108.676 16.0603 108.497 16.3445C108.315 16.6312 108.081 17.0964 107.784 17.7493L107.722 17.8875L107.843 17.9613C108.596 18.4248 109.55 18.7227 110.701 18.8607L110.863 18.8806L110.858 18.6977L110.716 18.7027L110.731 18.5442C109.606 18.4092 108.689 18.1188 107.98 17.6823L107.911 17.822L108.038 17.8943C108.331 17.2475 108.563 16.7891 108.728 16.5285C108.895 16.2649 109.057 16.0772 109.21 15.9614C109.363 15.8457 109.516 15.7922 109.688 15.7922C109.765 15.7624 110.007 16.023 110.217 16.6809C110.435 17.3258 110.554 18.0007 110.574 18.7077L110.716 18.7027L110.731 18.5442L110.716 18.7027ZM105.472 20.0367L105.572 19.9235L105.484 19.8251V18.9142L105.572 18.8153L105.472 18.7027V18.862C105.891 18.862 106.257 18.7469 106.555 18.513V18.5123C106.851 18.2786 107.1 17.9303 107.306 17.4745L107.619 16.773L107.62 16.7711L107.621 16.7692C108.017 15.8215 108.404 15.1611 108.765 14.7922C109.129 14.421 109.511 14.245 109.931 14.2444C110.174 14.2431 110.442 14.4117 110.732 14.8097C111.02 15.2065 111.257 15.7239 111.439 16.365C111.62 17.0068 111.71 17.623 111.711 18.2151C111.71 18.5547 111.654 18.8575 111.547 19.1293C111.442 19.3931 111.252 19.6561 110.97 19.9129L111.06 20.0367V19.8775C110.446 19.8775 109.794 19.7823 109.099 19.5914C108.405 19.4005 107.83 19.1536 107.373 18.8557L107.263 18.7841L107.187 18.8986C106.953 19.2549 106.703 19.5018 106.437 19.6499L106.436 19.6505C106.172 19.7997 105.852 19.8775 105.472 19.8775V20.0367L105.572 19.9235L105.472 20.0367V20.1959C105.885 20.1959 106.252 20.1112 106.564 19.9347L106.563 19.9353C106.879 19.7592 107.162 19.4733 107.416 19.0877L107.301 18.9931L107.23 19.1312C107.718 19.4483 108.318 19.704 109.032 19.9004C109.745 20.0964 110.42 20.1959 111.06 20.1959H111.11L111.149 20.1598C111.455 19.8805 111.677 19.582 111.806 19.2587C111.931 18.9439 111.995 18.5939 111.995 18.2151C111.995 17.5871 111.899 16.9378 111.709 16.2687C111.519 15.5989 111.268 15.0441 110.952 14.6088C110.638 14.1747 110.298 13.9273 109.931 13.926C109.437 13.9247 108.977 14.1424 108.573 14.5579C108.166 14.9758 107.769 15.6659 107.364 16.6344L107.493 16.7014L107.366 16.6299L107.053 17.3314V17.3309C106.862 17.7537 106.64 18.0565 106.392 18.2519C106.148 18.4434 105.846 18.5429 105.472 18.5435H105.414L105.242 18.7351L105.2 18.7817V19.8912V19.9571L105.372 20.1493L105.414 20.1959H105.472V20.0367Z" fill="white"/>
<path d="M117.849 16.9251C118.267 17.3238 118.729 17.5887 119.238 17.7199C119.746 17.8517 120.306 17.9225 120.922 17.9338L120.519 15.1123L120.51 15.078C119.266 15.5569 118.379 16.1726 117.849 16.9251ZM120.38 19.3536C119.811 19.2963 119.421 19.2411 119.208 19.1869C118.994 19.1328 118.771 19.0558 118.54 18.9556C118.308 18.8561 118.071 18.7292 117.828 18.575C117.583 18.4213 117.399 18.2728 117.274 18.1303L117.087 17.7372C117.087 17.5838 117.158 17.3182 117.298 16.9418C117.438 16.5656 117.553 16.2889 117.645 16.1122C117.802 15.7876 118.146 15.4133 118.677 14.9879C119.208 14.5632 119.77 14.2174 120.366 13.9493L120.312 13.4706C120.672 13.1061 121.051 12.8001 121.447 12.5558L121.592 18.2416C122.065 18.5495 122.606 18.7038 123.216 18.7038L123.346 18.8493V19.8922L123.216 20.0377C122.586 20.0377 122.075 19.9053 121.684 19.6397C121.293 19.3753 121.068 18.9997 121.006 18.5153L120.952 18.1478L120.38 19.3536Z" fill="white"/>
<path d="M117.85 16.9241L117.759 17.0454C118.191 17.4589 118.676 17.7375 119.207 17.8744C119.726 18.0086 120.297 18.0803 120.921 18.092L121.09 18.0951L120.659 15.077L120.648 15.0348L120.609 14.8712L120.466 14.926C119.206 15.4117 118.294 16.0378 117.739 16.8253L117.655 16.9459L117.759 17.0454L117.85 16.9241L117.962 17.0224C118.466 16.3053 119.328 15.7002 120.558 15.2276L120.511 15.077L120.374 15.1187L120.381 15.1449L120.783 17.9583L120.923 17.9328L120.925 17.7736C120.318 17.7623 119.767 17.6921 119.271 17.564C118.785 17.4384 118.344 17.1865 117.943 16.8028L117.85 16.9241L117.962 17.0224L117.85 16.9241ZM120.381 19.3526L120.394 19.1941C119.829 19.1374 119.439 19.0815 119.24 19.0304C119.034 18.9782 118.818 18.9035 118.592 18.8059H118.592C118.368 18.7096 118.137 18.5864 117.898 18.4353C117.661 18.2866 117.487 18.1443 117.376 18.018L117.276 18.1293L117.401 18.0546L117.213 17.6617L117.088 17.7362H117.23C117.228 17.6324 117.292 17.3694 117.43 17.0025C117.569 16.6293 117.683 16.3562 117.768 16.1915L117.769 16.1902L117.77 16.1878C117.908 15.9011 118.238 15.5335 118.761 15.1162C119.282 14.6989 119.835 14.3593 120.42 14.0957L120.522 14.0503L120.454 13.4497L120.313 13.4696L120.408 13.5877C120.761 13.2307 121.131 12.9322 121.517 12.6941L121.449 12.5548L121.307 12.5591L121.454 18.3339L121.522 18.3788C122.018 18.7015 122.585 18.862 123.217 18.862V18.7027L123.117 18.8153L123.205 18.9142V19.8251L123.117 19.9235L123.217 20.0367V19.8775C122.604 19.8775 122.12 19.7481 121.759 19.5024L121.758 19.5018C121.399 19.2561 121.206 18.9328 121.148 18.4918V18.4901L121.094 18.1205L121.025 17.6566L120.256 19.2773L120.381 19.3526L120.394 19.1941L120.381 19.3526L120.506 19.4271L121.079 18.2213L120.953 18.1468L120.813 18.1729L120.868 18.5404L121.007 18.5143L120.867 18.5367C120.931 19.0646 121.19 19.4926 121.612 19.7748H121.611C122.032 20.0603 122.57 20.1959 123.217 20.1959H123.275L123.447 20.0042L123.489 19.9571V18.8483V18.7817L123.317 18.5896L123.275 18.5435H123.217C122.628 18.5429 122.114 18.3955 121.665 18.1032L121.594 18.2406L121.736 18.2363L121.583 12.2892L121.38 12.4148C120.973 12.6661 120.586 12.9789 120.219 13.3513L120.163 13.4067L120.226 13.9682L120.368 13.9483L120.314 13.8004C119.708 14.0734 119.135 14.4254 118.595 14.8569C118.057 15.2904 117.7 15.6717 117.521 16.0354L117.646 16.1112L117.523 16.0316C117.425 16.2201 117.309 16.5 117.168 16.8799C117.027 17.2655 116.949 17.5323 116.946 17.7362V17.776L117.15 18.2046L117.16 18.2251L117.175 18.2412C117.313 18.3998 117.508 18.5541 117.759 18.7133C118.008 18.8699 118.251 19.0006 118.49 19.1031H118.49C118.727 19.2058 118.956 19.2848 119.177 19.3413C119.405 19.3986 119.797 19.4539 120.369 19.5112L120.462 19.5204L120.506 19.4271L120.381 19.3526Z" fill="white"/>
<path d="M128.425 22.0036C128.236 22.3338 127.924 22.7307 127.487 23.1921C127.035 22.7872 126.692 22.4315 126.458 22.1236C126.692 21.8842 127.027 21.4906 127.464 20.9433C127.555 21.0578 127.876 21.411 128.425 22.0036ZM126.069 22.2518C125.881 22.5882 125.573 22.9875 125.146 23.4489C124.679 23.0266 124.335 22.671 124.11 22.3798C124.384 22.0943 124.72 21.7014 125.116 21.2001C125.207 21.3077 125.526 21.6584 126.069 22.2518ZM127.464 16.0521C127.606 16.0521 127.734 16.0981 127.846 16.189C127.658 16.6964 127.493 17.1211 127.35 17.4633C127.207 17.8052 127.121 17.9961 127.091 18.0359C127.441 18.2871 127.768 18.4607 128.07 18.5578C128.372 18.6547 128.702 18.7033 129.058 18.7033L129.187 18.8488V19.8918L129.058 20.0373C128.097 20.0373 127.274 19.6983 126.588 19.0192L126.335 19.3954C126.23 19.5272 125.852 19.6665 125.205 19.8145C124.556 19.9632 123.92 20.0373 123.295 20.0373L123.165 19.8918V18.8488L123.295 18.7033C123.94 18.7033 124.488 18.6721 124.937 18.6094C125.388 18.5458 125.705 18.4408 125.891 18.2929C126.076 18.1442 126.349 17.6803 126.709 16.8992L126.984 16.3345C127.075 16.146 127.236 16.0521 127.464 16.0521Z" fill="white"/>
<path d="M128.422 22.0036L128.303 21.9178C128.126 22.23 127.819 22.6199 127.387 23.0763L127.484 23.192L127.573 23.0683C127.126 22.6671 126.788 22.3158 126.563 22.0204L126.455 22.1236L126.55 22.2411C126.792 21.9943 127.129 21.5987 127.566 21.0496L127.461 20.9433L127.355 21.0496C127.456 21.1746 127.774 21.5236 128.324 22.1187L128.422 22.0036L128.303 21.9178L128.422 22.0036L128.522 21.8891C127.974 21.2978 127.649 20.9407 127.566 20.8369L127.461 20.7051L127.355 20.8369C126.921 21.3824 126.586 21.7735 126.359 22.0061L126.258 22.1093L126.347 22.2269C126.59 22.5465 126.94 22.9079 127.396 23.3164L127.492 23.4028L127.582 23.3083C128.024 22.8413 128.343 22.4384 128.542 22.0894L128.605 21.98L128.522 21.8891L128.422 22.0036ZM126.066 22.2518L125.947 22.1672C125.768 22.4861 125.467 22.8779 125.045 23.3345L125.144 23.4488L125.233 23.3251C124.77 22.9066 124.43 22.5546 124.215 22.276L124.108 22.3798L124.203 22.4968C124.483 22.2058 124.821 21.8095 125.219 21.3058L125.114 21.2001L125.01 21.3096C125.107 21.4234 125.423 21.7716 125.968 22.3656L126.066 22.2518L125.947 22.1672L126.066 22.2518L126.166 22.1373C125.623 21.5452 125.303 21.1926 125.216 21.0907L125.11 20.9644L125.007 21.0944C124.612 21.5931 124.28 21.9837 124.01 22.2629L123.91 22.368L124 22.4844C124.234 22.7872 124.584 23.1473 125.055 23.5727L125.152 23.6609L125.242 23.5633C125.674 23.0962 125.988 22.6909 126.187 22.3363L126.248 22.2274L126.166 22.1373L126.066 22.2518ZM127.461 16.0521V16.2113L127.76 16.3182L127.843 16.189L127.712 16.128C127.524 16.6343 127.36 17.0571 127.219 17.3961C127.148 17.5658 127.091 17.6982 127.049 17.7909L126.998 17.8998L126.983 17.9284L126.979 17.934L127 17.9514L126.981 17.9321L126.979 17.934L127 17.9514L126.981 17.9321L126.874 18.0714L127.012 18.1703C127.371 18.4277 127.71 18.6081 128.029 18.7108C128.346 18.8126 128.688 18.8625 129.055 18.8625V18.7033L128.954 18.8158L129.042 18.9147V19.8257L128.954 19.9241L129.055 20.0372V19.878C128.124 19.8768 127.341 19.5534 126.679 18.8997L126.564 18.7859L126.22 19.3003L126.332 19.3953L126.227 19.289C126.196 19.3512 125.809 19.5216 125.173 19.6585C124.534 19.8053 123.907 19.878 123.293 19.878V20.0372L123.392 19.9241L123.304 19.8257V18.9147L123.392 18.8158L123.293 18.7033V18.8625C123.942 18.8625 124.495 18.8313 124.952 18.7666C125.413 18.7007 125.748 18.5982 125.971 18.4221C126.204 18.2274 126.465 17.7617 126.833 16.9719L126.707 16.8992L126.831 16.975L127.106 16.4109C127.175 16.2778 127.266 16.2164 127.461 16.2113V16.0521V15.8928C127.201 15.8879 126.971 16.0154 126.857 16.2579L126.583 16.8226L126.581 16.8245L126.581 16.8258C126.228 17.5981 125.943 18.0609 125.805 18.1628C125.657 18.2841 125.356 18.3911 124.917 18.4514C124.476 18.5129 123.934 18.5441 123.293 18.5441H123.234L123.062 18.7356L123.021 18.7822V19.8917V19.9576L123.192 20.1498L123.234 20.1964H123.293C123.927 20.1964 124.573 20.1211 125.231 19.9707C125.889 19.8109 126.259 19.7026 126.438 19.5023L126.442 19.4967L126.698 19.115L126.585 19.0191L126.491 19.1385C127.201 19.8432 128.065 20.1976 129.055 20.1964H129.113L129.285 20.0048L129.326 19.9576V18.8488V18.7822L129.155 18.5901L129.113 18.5441H129.055C128.71 18.5441 128.395 18.4974 128.107 18.4048C127.822 18.3132 127.507 18.1467 127.165 17.9017L127.088 18.0359L127.196 18.1405L127.302 17.9351C127.346 17.8369 127.404 17.7027 127.476 17.5309C127.62 17.1857 127.785 16.7592 127.974 16.2504L128.018 16.1336L127.927 16.0602C127.791 15.9502 127.631 15.8922 127.461 15.8928V16.0521Z" fill="white"/>
<path d="M129.298 20.0377L129.169 19.8922V18.8493L129.298 18.7038C129.887 18.7038 130.457 18.5525 131.007 18.2503C130.869 17.0191 130.704 14.8013 130.51 11.598L130.358 9.26343C130.667 8.90395 131.018 8.57933 131.411 8.28831C131.476 9.89022 131.53 12.4071 131.57 15.8394L131.624 18.2416C132.095 18.5495 132.637 18.7038 133.247 18.7038L133.384 18.8493V19.8922L133.247 20.0377C132.485 20.0377 131.888 19.8293 131.455 19.4133C131.075 19.6528 130.731 19.8169 130.426 19.9053C130.123 19.9928 129.747 20.0377 129.298 20.0377Z" fill="white"/>
<path d="M129.295 20.0367L129.396 19.9235L129.308 19.8251V18.9142L129.396 18.8153L129.295 18.7027V18.862C129.907 18.862 130.499 18.7045 131.066 18.3923L131.157 18.342L131.144 18.2294C131.008 17.0056 130.842 14.7879 130.649 11.5859L130.496 9.25065L130.355 9.26243L130.456 9.37308C130.76 9.02235 131.102 8.70522 131.486 8.4204L131.408 8.28731L131.267 8.29479C131.332 9.89367 131.386 12.4091 131.425 15.8401L131.482 18.3339L131.55 18.3781C132.044 18.7015 132.613 18.862 133.245 18.862V18.7027L133.147 18.8183L133.239 18.9166V19.8227L133.147 19.921L133.245 20.0367V19.8775C132.504 19.8769 131.945 19.676 131.545 19.2916L131.469 19.2189L131.383 19.2737C131.011 19.508 130.678 19.6666 130.388 19.7506C130.1 19.8333 129.735 19.8775 129.295 19.8775V20.0367L129.396 19.9235L129.295 20.0367V20.1959C129.752 20.1959 130.138 20.151 130.459 20.0584C130.781 19.9651 131.135 19.7954 131.522 19.551L131.452 19.4123L131.36 19.533C131.824 19.98 132.46 20.1966 133.245 20.1959H133.3L133.479 20.0068L133.523 19.9595V18.8483V18.7792L133.341 18.587L133.3 18.5435H133.245C132.656 18.5429 132.141 18.3955 131.692 18.1032L131.621 18.2406L131.763 18.2369L131.709 15.8339L131.567 15.8383L131.709 15.8358C131.67 12.4029 131.616 9.88556 131.55 8.28046L131.539 7.99994L131.33 8.15485C130.929 8.45145 130.571 8.78354 130.253 9.15178L130.208 9.20273L130.365 11.6081V11.6075C130.56 14.8121 130.724 17.0311 130.862 18.2692L131.004 18.2493L130.94 18.1064C130.409 18.3987 129.863 18.5435 129.295 18.5435H129.237L129.066 18.7351L129.024 18.7817V19.8912V19.9571L129.196 20.1493L129.237 20.1959H129.295V20.0367Z" fill="white"/>
<path d="M133.325 20.0367L133.196 19.8912V18.8483L133.325 18.7028C133.997 18.7028 134.645 18.6853 135.268 18.651C135.021 18.4683 134.803 18.2183 134.617 17.8986C134.432 17.579 134.34 17.24 134.34 16.8812C134.34 16.3849 134.461 15.8638 134.702 15.3165C134.943 14.7693 135.255 14.3277 135.634 13.9907C136.017 13.6543 136.415 13.4863 136.832 13.4863C137.192 13.4863 137.539 13.5877 137.868 13.7897C138.199 13.9926 138.582 14.3071 139.019 14.7351L138.745 15.2904C138.335 15.1145 138.034 15.003 137.847 14.957C137.658 14.911 137.452 14.8887 137.228 14.8887C136.588 14.8887 135.919 15.1025 135.224 15.5298C135.224 16.0316 135.331 16.4894 135.548 16.9023C135.763 17.3159 136.078 17.648 136.489 17.8986C136.901 18.1499 137.387 18.2923 137.944 18.3264C138.34 18.235 138.719 18.1257 139.08 17.9969C139.442 17.8693 139.947 17.6624 140.597 17.3774C140.74 17.5255 140.811 17.7332 140.811 18.0012L140.795 18.1809C140.734 18.574 140.519 18.8222 140.147 18.9247C138.908 19.2724 137.97 19.5112 137.334 19.6387C136.7 19.7674 136.047 19.8656 135.38 19.9341C134.712 20.0025 134.026 20.0367 133.325 20.0367Z" fill="white"/>
<path d="M133.324 20.0367L133.425 19.9235L133.336 19.8251V18.9142L133.425 18.8153L133.324 18.7027V18.862C133.997 18.862 134.648 18.8444 135.274 18.8102L135.71 18.786L135.345 18.5181C135.115 18.3488 134.912 18.1156 134.735 17.8115C134.563 17.5149 134.481 17.2102 134.481 16.8811C134.481 16.4148 134.594 15.9173 134.828 15.3868C135.061 14.8581 135.359 14.4366 135.721 14.1156V14.1162C136.084 13.7972 136.449 13.6461 136.831 13.6455C137.167 13.6461 137.489 13.7394 137.8 13.929H137.799C138.115 14.1237 138.492 14.4321 138.924 14.8551L139.018 14.7351L138.894 14.6579L138.619 15.214L138.744 15.2904L138.793 15.1418C138.38 14.9638 138.077 14.8513 137.875 14.8016C137.675 14.7531 137.459 14.7295 137.227 14.7295C136.558 14.7295 135.866 14.9533 135.155 15.3905L135.081 15.4359V15.5298C135.081 16.0566 135.195 16.5454 135.424 16.9832C135.653 17.4229 135.989 17.776 136.419 18.0386L136.421 18.0392L136.419 18.0386C136.853 18.3028 137.36 18.4503 137.936 18.4851L137.955 18.4862L137.972 18.4826C138.373 18.3906 138.756 18.2793 139.121 18.1486C139.489 18.0193 139.997 17.8115 140.648 17.5254L140.596 17.3774L140.499 17.4938C140.608 17.6095 140.666 17.763 140.668 18.0011H140.81L140.668 17.9863L140.652 18.1661L140.794 18.1809L140.654 18.1535C140.596 18.4918 140.444 18.6709 140.112 18.7704C138.874 19.1175 137.938 19.3556 137.309 19.4819C136.677 19.6101 136.029 19.707 135.365 19.7755C134.702 19.8433 134.022 19.8775 133.324 19.8775V20.0367L133.425 19.9235L133.324 20.0367V20.1959C134.03 20.1959 134.719 20.1617 135.392 20.0926C136.063 20.0237 136.72 19.9253 137.359 19.7954C138 19.6666 138.939 19.4271 140.18 19.0796C140.591 18.9732 140.871 18.6567 140.933 18.2083L140.935 18.2021L140.95 18.0161L140.952 18.0086V18.0011C140.953 17.7033 140.868 17.4422 140.692 17.2605L140.627 17.1927L140.544 17.2288C139.896 17.5137 139.392 17.7195 139.036 17.8445V17.8451C138.68 17.972 138.307 18.0803 137.915 18.1704L137.943 18.3264L137.952 18.1672C137.41 18.1342 136.946 17.9968 136.554 17.7587H136.555C136.164 17.5192 135.871 17.2089 135.669 16.8214C135.466 16.4335 135.365 16.0062 135.365 15.5298H135.223L135.291 15.6698C135.971 15.2518 136.615 15.0479 137.227 15.0479C137.442 15.0479 137.638 15.0696 137.816 15.1132C137.987 15.1549 138.285 15.2643 138.693 15.4397L138.808 15.4887L139.141 14.8121L139.198 14.6996L139.111 14.615C138.67 14.1822 138.278 13.8614 137.936 13.6498H137.935C137.587 13.436 137.215 13.3271 136.831 13.3271C136.379 13.3264 135.947 13.5117 135.546 13.8657L135.542 13.8682L135.545 13.8663C135.148 14.2183 134.823 14.6803 134.573 15.2456C134.325 15.8097 134.197 16.3558 134.197 16.8811C134.197 17.2712 134.298 17.6436 134.498 17.9857C134.692 18.3208 134.924 18.5883 135.19 18.7841L135.267 18.651L135.261 18.4924C134.64 18.526 133.993 18.5435 133.324 18.5435H133.266L133.094 18.7351L133.052 18.7817V19.8912V19.9571L133.225 20.1493L133.266 20.1959H133.324V20.0367Z" fill="white"/>
<path d="M152.389 20.9864L151.993 18.1561C151.551 15.1916 151.26 13.1262 151.12 11.9602C150.981 10.7955 150.911 10.0275 150.911 9.65619C150.911 9.26312 150.992 8.9584 151.155 8.74125C151.317 8.52426 151.577 8.3738 151.932 8.28799L151.979 8.49321C151.993 8.55593 152.163 9.18033 152.488 10.3664L152.122 10.7251L152.153 10.9988L152.663 16.1891C152.755 16.9471 152.824 17.6742 152.87 18.3694L152.877 18.4043C153.212 18.6039 153.595 18.7034 154.021 18.7034L154.15 18.8489V19.8919L154.021 20.0374C153.645 20.0374 153.29 19.9435 152.953 19.755L152.968 20.3278C152.968 21.0517 152.768 21.742 152.366 22.3974C151.964 23.0523 151.412 23.587 150.711 24C150.01 24.4136 149.287 24.6207 148.54 24.6207C147.65 24.6207 146.958 24.3346 146.46 23.7606C145.962 23.1885 145.712 22.3769 145.712 21.3284C145.712 20.992 145.732 20.6749 145.77 20.3744C145.807 20.0759 145.891 19.6388 146.017 19.0623L146.589 19.2164C146.473 19.7295 146.413 20.1449 146.413 20.4646C146.413 21.3196 146.605 21.9851 146.985 22.4608C147.367 22.9371 147.897 23.1755 148.577 23.1755C149.071 23.1755 149.583 23.0784 150.118 22.8843C150.65 22.691 151.121 22.4261 151.527 22.0895C151.935 21.7525 152.223 21.3849 152.389 20.9864Z" fill="white"/>
<path d="M152.386 20.9864L152.526 20.9614L152.129 18.1312V18.13C151.689 15.1667 151.398 13.1013 151.258 11.939C151.119 10.7774 151.051 10.0082 151.051 9.65616C151.051 9.28537 151.126 9.02301 151.261 8.8439V8.84327C151.395 8.66352 151.623 8.52486 151.959 8.44398L151.929 8.28796L151.791 8.32776L151.838 8.53298L151.976 8.49318L151.838 8.5317C151.855 8.61003 152.024 9.22392 152.351 10.4129L152.485 10.3664L152.392 10.2463L152.027 10.6052L151.97 10.6611L152.01 11.0174L152.519 16.2084V16.2108C152.61 16.9659 152.68 17.6891 152.725 18.3812L152.727 18.3936L152.735 18.4391L152.749 18.5106L152.807 18.5448C153.165 18.758 153.572 18.8626 154.018 18.8626V18.7034L153.917 18.8153L154.005 18.9142V19.8258L153.917 19.9248L154.018 20.0374V19.8782C153.663 19.8775 153.331 19.7898 153.015 19.6126L152.803 19.4939L152.823 20.3321L152.965 20.3278H152.823C152.823 21.0187 152.634 21.6742 152.247 22.3072C151.858 22.939 151.327 23.4564 150.643 23.8594C149.959 24.2619 149.261 24.4609 148.538 24.4615C147.673 24.4602 147.026 24.1872 146.559 23.6499V23.6492C146.092 23.1132 145.851 22.3501 145.851 21.3284C145.851 20.9988 145.87 20.689 145.908 20.3973V20.3937V20.3967C145.943 20.1089 146.026 19.6734 146.152 19.1001L146.014 19.0623L145.98 19.217L146.554 19.3713L146.586 19.2164L146.449 19.1772C146.331 19.6978 146.268 20.1232 146.268 20.4645C146.268 21.3451 146.467 22.0553 146.877 22.5671C147.286 23.0815 147.866 23.3364 148.574 23.3346C149.085 23.3346 149.613 23.2339 150.16 23.0361C150.704 22.8376 151.19 22.5654 151.61 22.2177C152.03 21.8693 152.335 21.4833 152.514 21.0534L152.532 21.0093L152.526 20.9614L152.386 20.9864L152.257 20.9192C152.104 21.2873 151.834 21.6363 151.441 21.9615C151.048 22.2868 150.591 22.5442 150.072 22.7332C149.549 22.9223 149.051 23.0162 148.574 23.0162C147.923 23.0143 147.441 22.7935 147.089 22.3544C146.737 21.9153 146.552 21.2948 146.552 20.4645C146.552 20.1673 146.609 19.7612 146.724 19.2555L146.759 19.0989L146.047 18.9073L145.909 18.8706L145.877 19.0242C145.749 19.6032 145.665 20.0436 145.627 20.3526V20.3513C145.587 20.6599 145.567 20.9851 145.567 21.3284C145.566 22.4036 145.826 23.2636 146.356 23.872C146.883 24.4814 147.622 24.781 148.538 24.7799C149.308 24.7799 150.056 24.5653 150.775 24.1412C151.493 23.7183 152.065 23.1654 152.481 22.4875C152.897 21.8096 153.107 21.0846 153.107 20.3278V20.3259L153.093 19.7507L152.951 19.755L152.888 19.8974C153.242 20.0964 153.621 20.1966 154.018 20.1966H154.078L154.248 20.0044L154.289 19.9578V18.8489V18.783L154.119 18.5908L154.078 18.5442H154.018C153.611 18.5442 153.253 18.4496 152.941 18.263L152.874 18.4043L153.012 18.3688L153.005 18.3345L152.867 18.3694L153.009 18.3583C152.962 17.6586 152.893 16.9284 152.8 16.1679L152.66 16.1891L152.802 16.1716L152.291 10.9801L152.27 10.7892L152.579 10.4858L152.649 10.418L152.622 10.3191C152.297 9.13747 152.123 8.50193 152.114 8.45528V8.45337L152.065 8.24816L152.033 8.1001L151.899 8.13242C151.526 8.22269 151.234 8.38492 151.044 8.63932V8.63869C150.852 8.89373 150.767 9.24 150.767 9.65616C150.767 10.0461 150.836 10.8128 150.977 11.9813C151.117 13.1518 151.408 15.217 151.85 18.1822V18.1804L152.246 21.0112L152.386 20.9864L152.257 20.9192L152.386 20.9864Z" fill="white"/>
<path d="M160.438 18.7037C161.795 18.7037 163.184 18.2043 164.606 17.2068C164.292 16.5911 163.913 16.1111 163.471 15.7664C163.029 15.4214 162.592 15.249 162.161 15.249C161.667 15.249 161.081 15.5178 160.398 16.0576C159.719 16.5956 158.979 17.3921 158.182 18.4468C158.995 18.6179 159.746 18.7037 160.438 18.7037ZM166.368 20.0377C165.926 20.0377 165.486 19.9382 165.05 19.7386C164.612 19.5383 164.254 19.2764 163.975 18.9512C163.512 19.2883 162.946 19.5533 162.279 19.7465C161.61 19.94 160.943 20.0377 160.278 20.0377C159.526 20.0377 158.752 19.9462 157.961 19.764C157.167 19.5811 156.539 19.3449 156.07 19.0545L155.804 19.3958C155.459 19.8238 154.89 20.0377 154.096 20.0377L153.966 19.8922V18.8493L154.096 18.7037C154.563 18.7037 154.935 18.6079 155.209 18.4177C155.484 18.2261 155.761 17.8566 156.039 17.3101L156.283 16.8224C156.391 16.6172 156.556 16.5147 156.78 16.5147C156.926 16.5147 157.048 16.5688 157.145 16.6769C156.926 17.2703 156.771 17.6745 156.679 17.8909C156.935 18.0284 157.194 18.1421 157.458 18.2336C159.451 15.2689 161.148 13.7871 162.55 13.7871C162.844 13.7871 163.207 13.9208 163.64 14.1887C164.071 14.4568 164.457 14.8013 164.798 15.2229C165.138 15.6453 165.307 16.0153 165.307 16.335C165.307 17.0413 165.108 17.6719 164.707 18.2249C165.179 18.5445 165.733 18.7037 166.368 18.7037L166.505 18.8493V19.8922L166.368 20.0377Z" fill="white"/>
<path d="M160.436 18.7037V18.8629C161.823 18.8629 163.241 18.3517 164.679 17.3417L164.795 17.2609L164.727 17.1278C164.403 16.4954 164.012 15.996 163.55 15.6359C163.091 15.277 162.625 15.0893 162.158 15.0898C161.618 15.0911 161.009 15.3784 160.315 15.9269C159.62 16.4766 158.875 17.2827 158.071 18.3442L157.912 18.5531L158.154 18.6036C158.974 18.7758 159.733 18.8629 160.436 18.8629V18.7037V18.5445C159.754 18.5445 159.012 18.4598 158.205 18.2908L158.179 18.4468L158.287 18.5501C159.08 17.5022 159.813 16.7143 160.478 16.1875C161.147 15.657 161.711 15.4065 162.158 15.4082C162.556 15.4082 162.963 15.5663 163.387 15.8971C163.81 16.226 164.175 16.6876 164.481 17.2863L164.603 17.2067L164.528 17.0719C163.123 18.0575 161.761 18.5445 160.436 18.5445V18.7037ZM166.366 20.0377V19.8785C165.942 19.8785 165.522 19.7833 165.101 19.5905C164.677 19.3977 164.338 19.1477 164.074 18.8405L163.993 18.7466L163.895 18.818C163.448 19.1433 162.896 19.4026 162.241 19.5924C161.584 19.7827 160.929 19.8785 160.275 19.8785C159.533 19.8785 158.77 19.7882 157.986 19.6078C157.203 19.4276 156.586 19.1944 156.136 18.9151L156.035 18.8523L155.694 19.2913L155.801 19.3958L155.696 19.2894C155.391 19.6695 154.866 19.8779 154.094 19.8785V20.0377L154.195 19.9245L154.105 19.8261V18.9151L154.195 18.8163L154.094 18.7037V18.8629C154.578 18.8623 154.975 18.7647 155.282 18.5525C155.588 18.3374 155.875 17.9481 156.16 17.389L156.161 17.3865L156.404 16.9003L156.281 16.8224L156.403 16.9033C156.492 16.7428 156.593 16.6782 156.777 16.6739L157.043 16.7901L157.142 16.6769L157.011 16.6159C156.793 17.208 156.638 17.6116 156.549 17.823L156.488 17.9668L156.615 18.0346C156.877 18.175 157.142 18.292 157.414 18.3853L157.509 18.4183L157.569 18.3293C159.549 15.3735 161.239 13.9351 162.547 13.9462C162.803 13.945 163.147 14.0663 163.567 14.328C163.986 14.5874 164.359 14.9201 164.69 15.3299C165.021 15.7379 165.165 16.0812 165.163 16.3349C165.163 17.0077 164.977 17.5968 164.593 18.1241L164.49 18.2666L164.63 18.361C165.127 18.6975 165.71 18.8629 166.366 18.8629V18.7037L166.268 18.8193L166.36 18.9175V19.8237L166.268 19.922L166.366 20.0377V19.8785V20.0377L166.462 20.1533L166.6 20.0078L166.644 19.9605V18.8492V18.7801L166.462 18.588L166.421 18.5445H166.366C165.751 18.5439 165.225 18.3909 164.777 18.0881L164.704 18.2248L164.813 18.3256C165.235 17.7472 165.448 17.0749 165.446 16.3349C165.445 15.95 165.252 15.5532 164.9 15.1165C164.549 14.6819 164.151 14.3263 163.705 14.0494C163.261 13.7746 162.879 13.6285 162.547 13.6278C161.051 13.6383 159.346 15.1645 157.342 18.1371L157.456 18.2336L157.497 18.0812C157.24 17.9922 156.987 17.881 156.737 17.7479L156.676 17.8908L156.806 17.9593C156.899 17.7366 157.054 17.3323 157.274 16.7379L157.311 16.639L157.243 16.5637C157.121 16.4263 156.955 16.3536 156.777 16.3555C156.515 16.3504 156.285 16.4916 156.158 16.7415L156.157 16.7428L155.913 17.2317V17.2311C155.642 17.7659 155.374 18.1153 155.131 18.282H155.133C154.888 18.4512 154.544 18.5445 154.094 18.5445H154.036L153.864 18.736L153.821 18.7827V19.8922V19.9581L153.994 20.1503L154.036 20.1969H154.094C154.907 20.1969 155.521 19.978 155.906 19.5028L155.907 19.5021L156.174 19.1589L156.068 19.0545L155.998 19.1938C156.485 19.4953 157.128 19.7347 157.93 19.9194C158.73 20.1047 159.513 20.1969 160.275 20.1969C160.954 20.1969 161.632 20.098 162.312 19.9008C162.99 19.7043 163.57 19.4332 164.049 19.0849L163.972 18.9511L163.87 19.0619C164.165 19.4052 164.541 19.6795 164.994 19.8858C165.446 20.0923 165.905 20.1969 166.366 20.1969H166.421L166.462 20.1533L166.366 20.0377Z" fill="white"/>
<path d="M166.444 20.0377L166.313 19.8922V18.8493L166.444 18.7037C167.974 18.7037 169.176 18.5551 170.05 18.2591L170.918 17.9251C171.509 17.6745 172.032 17.5035 172.489 17.412C172.082 17.1845 171.68 16.8941 171.283 16.5402C170.862 16.1695 170.521 15.9115 170.26 15.7664C169.997 15.6204 169.729 15.5482 169.454 15.5482C168.957 15.5482 168.509 15.6907 168.113 15.9761L167.747 16.2323C167.595 16.0613 167.52 15.8336 167.52 15.5482C167.52 15.1092 167.691 14.756 168.038 14.4879C168.382 14.2199 168.838 14.0862 169.401 14.0862C169.732 14.0862 170.065 14.1664 170.403 14.3256C170.741 14.4848 171.134 14.7472 171.581 15.1123C172.125 15.5619 172.587 15.9002 172.969 16.1259C173.349 16.3504 173.737 16.5115 174.127 16.6086C174.519 16.7056 175.088 16.7541 175.834 16.7541L175.239 18.0451C174.914 17.9991 174.624 17.9681 174.362 17.9512L174.31 17.9424L173.991 17.9512C173.63 17.9512 173.284 18.0109 172.958 18.1303C172.63 18.2503 172.12 18.5103 171.429 18.909C170.652 19.3592 169.949 19.6596 169.322 19.8107C168.693 19.9618 167.734 20.0377 166.444 20.0377Z" fill="white"/>
<path d="M166.445 20.0367L166.546 19.9235L166.457 19.8251V18.9142L166.546 18.8153L166.445 18.7027V18.862C167.984 18.8613 169.197 18.7133 170.092 18.4105L170.095 18.4098L170.965 18.0752L170.968 18.0739L170.969 18.0734C171.554 17.8246 172.069 17.6566 172.515 17.5684L172.939 17.4837L172.554 17.2686C172.156 17.0466 171.763 16.7617 171.374 16.4148L171.372 16.4142C170.947 16.0391 170.6 15.7767 170.324 15.6225V15.6231C170.044 15.4669 169.752 15.388 169.455 15.388C168.934 15.3873 168.456 15.5386 168.038 15.8407L168.114 15.9751L168.039 15.8395L167.673 16.0964L167.748 16.2313L167.849 16.1187C167.725 15.9794 167.664 15.8029 167.663 15.5472C167.666 15.156 167.805 14.8663 168.12 14.6181V14.6176C168.435 14.373 168.858 14.2444 169.403 14.2444C169.712 14.2444 170.027 14.3191 170.349 14.4714C170.673 14.6231 171.057 14.8799 171.5 15.2401L171.499 15.2394C172.045 15.6922 172.513 16.0342 172.903 16.2655C173.295 16.4962 173.694 16.6622 174.098 16.763C174.507 16.8644 175.083 16.9117 175.835 16.9123V16.7531L175.709 16.6797L175.116 17.9707L175.241 18.0441L175.259 17.8862C174.931 17.8402 174.636 17.8085 174.372 17.791L174.364 17.9502L174.385 17.7923L174.331 17.7841L174.32 17.7822L173.988 17.791L173.992 17.9502V17.791C173.617 17.791 173.257 17.8532 172.915 17.9782C172.571 18.1038 172.061 18.3657 171.365 18.7661C170.596 19.2114 169.904 19.5067 169.293 19.6535C168.683 19.8009 167.731 19.8775 166.445 19.8775V20.0367L166.546 19.9235L166.445 20.0367V20.1959C167.741 20.1953 168.706 20.1213 169.353 19.9651C169.996 19.8103 170.71 19.5037 171.496 19.049C172.183 18.6523 172.689 18.3949 173.003 18.281C173.315 18.1667 173.644 18.1094 173.992 18.1094H173.993L174.303 18.1006L174.344 18.1075L174.35 18.1088H174.355C174.612 18.1256 174.9 18.1567 175.224 18.2021L175.322 18.2157L175.962 16.8259L176.069 16.5939H175.835C175.095 16.5939 174.531 16.5447 174.159 16.4521C173.782 16.3582 173.407 16.2028 173.035 15.9839C172.665 15.7643 172.207 15.4303 171.667 14.9831L171.666 14.9826C171.213 14.6131 170.813 14.3445 170.46 14.1779C170.107 14.0112 169.753 13.926 169.403 13.926C168.819 13.926 168.334 14.064 167.958 14.3557C167.581 14.6437 167.376 15.0603 167.379 15.5472C167.378 15.8626 167.466 16.1412 167.647 16.3438L167.728 16.4335L168.189 16.1101L168.191 16.1082V16.1088C168.564 15.8401 168.983 15.707 169.455 15.7064C169.708 15.7064 169.953 15.7723 170.197 15.9079V15.9086C170.444 16.044 170.781 16.2972 171.198 16.6641L171.196 16.6635C171.599 17.0236 172.009 17.3202 172.427 17.5541L172.491 17.411L172.465 17.2543C171.997 17.3482 171.465 17.5218 170.869 17.7754L170.92 17.9241L170.873 17.7736L170.006 18.1075L170.051 18.2581L170.01 18.1057C169.157 18.3948 167.967 18.5435 166.445 18.5435H166.387L166.215 18.7351L166.173 18.7817V19.8912V19.9571L166.346 20.1493L166.387 20.1959H166.445V20.0367Z" fill="white"/>
<path d="M177.813 14.2056V15.3001C177.813 16.4289 177.777 17.9599 177.707 19.8922L176.99 20.0377C176.923 15.9451 176.781 12.547 176.563 9.84485L176.556 9.62228C176.556 9.25165 176.638 8.95681 176.803 8.7379C176.967 8.51772 177.228 8.36855 177.584 8.28831L177.63 8.49352C177.646 8.55625 177.816 9.18064 178.141 10.3667L177.721 10.7684L177.728 10.8536C177.785 12.1073 177.813 13.2255 177.813 14.2056Z" fill="white"/>
<path d="M177.814 14.2054H177.672V15.3C177.672 16.4249 177.637 17.9542 177.566 19.8857L177.708 19.892L177.682 19.7352L176.966 19.8807L176.991 20.0376L177.133 20.0344C177.066 15.9392 176.924 12.5381 176.706 9.83036L176.564 9.84469L176.706 9.83911L176.699 9.61655L176.557 9.62212H176.699C176.7 9.27633 176.774 9.02447 176.912 8.84043H176.913C177.049 8.65686 177.276 8.52011 177.613 8.44417L177.586 8.28815L177.448 8.32668L177.494 8.53189V8.5338V8.53507C177.512 8.60783 177.681 9.22538 178.007 10.413L178.142 10.3666L178.05 10.2452L177.631 10.6469L177.574 10.7004L177.589 10.8684L177.729 10.8534L177.587 10.8615C177.644 12.1133 177.672 13.2284 177.672 14.2054H177.814H177.956C177.956 13.2216 177.928 12.1016 177.871 10.8453V10.8423V10.836L178.234 10.4871L178.305 10.4194L178.278 10.3193C177.953 9.13575 177.782 8.50515 177.767 8.45165L177.631 8.49336L177.769 8.45483L177.723 8.24962L177.691 8.1022L177.557 8.13197C177.183 8.21667 176.889 8.37762 176.695 8.63521H176.696C176.504 8.88882 176.415 9.2265 176.415 9.62212V9.62451L176.422 9.85026V9.85472V9.85901C176.641 12.5556 176.783 15.9498 176.849 20.0399L176.852 20.2272L177.733 20.0487L177.844 20.0256L177.85 19.8989C177.919 17.9647 177.956 16.4324 177.956 15.3V14.2054H177.814Z" fill="white"/>
<path d="M29.2474 30.386L14.1396 48.3757C14.1402 48.3794 14.1414 48.3825 14.1419 48.3862C14.6052 50.3396 16.1955 51.778 18.083 51.778C18.8375 51.778 19.5459 51.5491 20.1534 51.1474L20.2016 51.1157L37.2073 40.1066L29.2474 30.386Z" fill="#EB3131"/>
<path d="M44.531 27.3227L44.5165 27.3116L37.1747 22.5367L28.9033 30.7941L37.2035 40.1047L44.5066 35.3773C45.787 34.6018 46.6561 33.0875 46.6561 31.3413C46.6561 29.6076 45.7986 28.1007 44.531 27.3227Z" fill="#F6B60B"/>
<path d="M14.1386 14.2322C14.0477 14.6079 14 15.0015 14 15.4102V47.1986C14 47.6065 14.0472 48.0014 14.1391 48.3757L29.7668 30.8463L14.1386 14.2322Z" fill="#5778C5"/>
<path d="M29.3584 31.304L37.1781 22.5336L20.1917 11.4848C19.5743 11.07 18.8537 10.8305 18.0826 10.8305C16.1951 10.8305 14.6027 12.2714 14.1392 14.2272C14.1387 14.2291 14.1387 14.2304 14.1387 14.2321L29.3584 31.304Z" fill="#3BAD49"/>
</svg>
