<svg width="2646" height="86" viewBox="0 0 2646 86" fill="none" xmlns="http://www.w3.org/2000/svg">
<g opacity="0.5" clip-path="url(#clip0_2258_9037)">
<path d="M2536.03 46.9712H2646V86H2591.36L2536.03 46.9712ZM2641.45 49.7193H2545.93L2593.48 83.2678H2641.45V49.7193Z" fill="#D3AE63"/>
<path d="M2564.13 83.2679H2521.72V86.0001H2574.03L2521.72 49.1157V53.3569L2564.13 83.2679Z" fill="#D3AE63"/>
<path d="M2564.13 2.74806L2521.72 32.659V36.8844L2574.03 0L2521.72 0V2.74806L2564.13 2.74806Z" fill="#D3AE63"/>
<path d="M2536.03 39.0288L2591.36 0L2646 0V39.0288H2536.03ZM2545.93 36.2808H2641.45V2.74806L2593.48 2.74806L2545.93 36.2966V36.2808Z" fill="#D3AE63"/>
<path d="M2507.43 46.9712L2455.14 83.8556L2402.86 46.9712H2507.46H2507.43ZM2455.14 79.6302L2497.56 49.7193H2412.76L2455.17 79.6302H2455.14Z" fill="#D3AE63"/>
<path d="M2430.93 83.2679H2388.52V86.0001H2440.83L2388.52 49.1157V53.3569L2430.93 83.2679Z" fill="#D3AE63"/>
<path d="M2402.83 39.0289L2455.12 2.14453L2507.4 39.0289H2402.81H2402.83ZM2455.12 6.36987L2412.7 36.2808H2497.51L2455.09 6.36987H2455.12Z" fill="#D3AE63"/>
<path d="M2521.72 86.0001V83.2679H2479.33L2521.72 53.3569V49.1157L2469.43 86.0001H2521.72Z" fill="#D3AE63"/>
<path d="M2521.72 36.8844V32.659L2479.33 2.74806L2521.72 2.74806V0L2469.43 0L2521.72 36.8844Z" fill="#D3AE63"/>
<path d="M2374.23 46.9712L2321.94 83.8556L2269.66 46.9712H2374.26H2374.23ZM2321.94 79.6302L2364.36 49.7193H2279.56L2321.97 79.6302H2321.94Z" fill="#D3AE63"/>
<path d="M2297.73 83.2679H2255.35V86.0001H2307.63L2255.35 49.1157V53.3569L2297.73 83.2679Z" fill="#D3AE63"/>
<path d="M2297.73 2.74806L2255.35 32.659V36.8844L2307.63 0L2255.35 0V2.74806L2297.73 2.74806Z" fill="#D3AE63"/>
<path d="M2269.63 39.0289L2321.92 2.14453L2374.2 39.0289H2269.61H2269.63ZM2321.92 6.36987L2279.5 36.2808H2364.31L2321.89 6.36987H2321.92Z" fill="#D3AE63"/>
<path d="M2388.52 86.0001V83.2679H2346.13L2388.52 53.3569V49.1157L2336.23 86.0001H2388.52Z" fill="#D3AE63"/>
<path d="M2430.93 2.74806L2388.52 32.659V36.8844L2440.83 0L2388.52 0V2.74806L2430.93 2.74806Z" fill="#D3AE63"/>
<path d="M2388.52 36.8844V32.659L2346.13 2.74806L2388.52 2.74806V0L2336.23 0L2388.52 36.8844Z" fill="#D3AE63"/>
<path d="M2241.03 46.9712L2188.74 83.8556L2136.46 46.9712H2241.06H2241.03ZM2188.74 79.6302L2231.16 49.7193H2146.36L2188.77 79.6302H2188.74Z" fill="#D3AE63"/>
<path d="M2164.56 83.2679H2122.15V86.0001H2174.43L2122.15 49.1157V53.3569L2164.56 83.2679Z" fill="#D3AE63"/>
<path d="M2164.56 2.74806L2122.15 32.659V36.8844L2174.43 0L2122.15 0V2.74806L2164.56 2.74806Z" fill="#D3AE63"/>
<path d="M2136.46 39.0289L2188.75 2.14453L2241.03 39.0289H2136.43H2136.46ZM2188.75 6.36987L2146.33 36.2808H2231.13L2188.72 6.36987H2188.75Z" fill="#D3AE63"/>
<path d="M2255.34 86.0001V83.2679H2212.93L2255.34 53.3569V49.1157L2203.03 86.0001H2255.34Z" fill="#D3AE63"/>
<path d="M2255.34 36.8844V32.659L2212.93 2.74806L2255.34 2.74806V0L2203.03 0L2255.34 36.8844Z" fill="#D3AE63"/>
<path d="M2107.86 46.9712L2055.57 83.8556L2003.29 46.9712H2107.88H2107.86ZM2055.57 79.6302L2097.99 49.7193H2013.18L2055.6 79.6302H2055.57Z" fill="#D3AE63"/>
<path d="M2031.36 83.2679H1988.95V86.0001H2041.26L1988.95 49.1157V53.3569L2031.36 83.2679Z" fill="#D3AE63"/>
<path d="M2031.36 2.74806L1988.95 32.659V36.8844L2041.26 0L1988.95 0V2.74806L2031.36 2.74806Z" fill="#D3AE63"/>
<path d="M2003.26 39.0289L2055.54 2.14453L2107.83 39.0289H2003.23H2003.26ZM2055.54 6.36987L2013.13 36.2808H2097.93L2055.52 6.36987H2055.54Z" fill="#D3AE63"/>
<path d="M2122.15 86.0001V83.2679H2079.73L2122.15 53.3569V49.1157L2069.86 86.0001H2122.15Z" fill="#D3AE63"/>
<path d="M2122.15 36.8844V32.659L2079.73 2.74806L2122.15 2.74806V0L2069.86 0L2122.15 36.8844Z" fill="#D3AE63"/>
<path d="M1974.66 46.9712L1922.37 83.8556L1870.09 46.9712H1974.68H1974.66ZM1922.37 79.6302L1964.79 49.7193H1879.98L1922.4 79.6302H1922.37Z" fill="#D3AE63"/>
<path d="M1898.16 83.2679H1855.77V86.0001H1908.06L1855.77 49.1157V53.3569L1898.16 83.2679Z" fill="#D3AE63"/>
<path d="M1898.16 2.74806L1855.77 32.659V36.8844L1908.06 0L1855.77 0V2.74806L1898.16 2.74806Z" fill="#D3AE63"/>
<path d="M1870.06 39.0289L1922.35 2.14453L1974.63 39.0289H1870.03H1870.06ZM1922.35 6.36987L1879.93 36.2808H1964.73L1922.32 6.36987H1922.35Z" fill="#D3AE63"/>
<path d="M1988.95 86.0001V83.2679H1946.56L1988.95 53.3569V49.1157L1936.66 86.0001H1988.95Z" fill="#D3AE63"/>
<path d="M1988.95 36.8844V32.659L1946.56 2.74806L1988.95 2.74806V0L1936.66 0L1988.95 36.8844Z" fill="#D3AE63"/>
<path d="M1841.46 46.9709L1789.17 83.8553L1736.89 46.9709H1841.49H1841.46ZM1789.17 79.63L1831.59 49.719H1746.78L1789.2 79.63H1789.17Z" fill="#D3AE63"/>
<path d="M1764.99 83.2679H1722.57V86.0001H1774.86L1722.57 49.1157V53.3569L1764.99 83.2679Z" fill="#D3AE63"/>
<path d="M1764.99 2.74806L1722.57 32.659V36.8844L1774.86 0L1722.57 0V2.74806L1764.99 2.74806Z" fill="#D3AE63"/>
<path d="M1736.89 39.0289L1789.17 2.14453L1841.46 39.0289H1736.86H1736.89ZM1789.17 6.36987L1746.76 36.2808H1831.56L1789.14 6.36987H1789.17Z" fill="#D3AE63"/>
<path d="M1855.77 86.0001V83.2679H1813.36L1855.77 53.3569V49.1157L1803.46 86.0001H1855.77Z" fill="#D3AE63"/>
<path d="M1855.77 36.8844V32.659L1813.36 2.74806L1855.77 2.74806V0L1803.46 0L1855.77 36.8844Z" fill="#D3AE63"/>
<path d="M1708.28 46.9712L1656 83.8556L1603.71 46.9712H1708.31H1708.28ZM1656 79.6302L1698.41 49.7193H1613.61L1656.02 79.6302H1656Z" fill="#D3AE63"/>
<path d="M1631.79 83.2679H1589.37V86.0001H1641.68L1589.37 49.1157V53.3569L1631.79 83.2679Z" fill="#D3AE63"/>
<path d="M1631.79 2.74806L1589.37 32.659V36.8844L1641.68 0L1589.37 0V2.74806L1631.79 2.74806Z" fill="#D3AE63"/>
<path d="M1603.69 39.0289L1655.97 2.14453L1708.26 39.0289H1603.66H1603.69ZM1655.97 6.36987L1613.56 36.2808H1698.36L1655.95 6.36987H1655.97Z" fill="#D3AE63"/>
<path d="M1722.57 86.0001V83.2679H1680.16L1722.57 53.3569V49.1157L1670.29 86.0001H1722.57Z" fill="#D3AE63"/>
<path d="M1722.57 36.8844V32.659L1680.16 2.74806L1722.57 2.74806V0L1670.29 0L1722.57 36.8844Z" fill="#D3AE63"/>
<path d="M1575.08 46.9709L1522.8 83.8553L1470.51 46.9709H1575.11H1575.08ZM1522.8 79.63L1565.21 49.719H1480.41L1522.83 79.63H1522.8Z" fill="#D3AE63"/>
<path d="M1498.59 83.2679H1456.2V86.0001H1508.48L1456.2 49.1157V53.3569L1498.59 83.2679Z" fill="#D3AE63"/>
<path d="M1498.59 2.74806L1456.2 32.659V36.8844L1508.48 0L1456.2 0V2.74806L1498.59 2.74806Z" fill="#D3AE63"/>
<path d="M1470.49 39.0289L1522.77 2.14453L1575.06 39.0289H1470.46H1470.49ZM1522.77 6.36987L1480.36 36.2808H1565.16L1522.75 6.36987H1522.77Z" fill="#D3AE63"/>
<path d="M1589.37 86.0001V83.2679H1546.98L1589.37 53.3569V49.1157L1537.09 86.0001H1589.37Z" fill="#D3AE63"/>
<path d="M1589.37 36.8844V32.659L1546.98 2.74806L1589.37 2.74806V0L1537.09 0L1589.37 36.8844Z" fill="#D3AE63"/>
<path d="M1441.89 46.9712L1389.6 83.8556L1337.32 46.9712H1441.91H1441.89ZM1389.6 79.6302L1432.02 49.7193H1347.21L1389.63 79.6302H1389.6Z" fill="#D3AE63"/>
<path d="M1365.42 83.2679H1323V86.0001H1375.28L1323 49.1157V53.3569L1365.42 83.2679Z" fill="#D3AE63"/>
<path d="M1365.42 2.74806L1323 32.659V36.8844L1375.28 0L1323 0V2.74806L1365.42 2.74806Z" fill="#D3AE63"/>
<path d="M1337.29 39.0289L1389.57 2.14453L1441.86 39.0289H1337.26H1337.29ZM1389.57 6.36987L1347.16 36.2808H1431.96L1389.55 6.36987H1389.57Z" fill="#D3AE63"/>
<path d="M1456.2 86.0001V83.2679H1413.79L1456.2 53.3569V49.1157L1403.89 86.0001H1456.2Z" fill="#D3AE63"/>
<path d="M1456.2 36.8844V32.659L1413.79 2.74806L1456.2 2.74806V0L1403.89 0L1456.2 36.8844Z" fill="#D3AE63"/>
<path d="M1308.71 46.9709L1256.43 83.8553L1204.14 46.9709H1308.74H1308.71ZM1256.43 79.63L1298.84 49.719H1214.04L1256.45 79.63H1256.43Z" fill="#D3AE63"/>
<path d="M1232.22 83.2679H1189.8V86.0001H1242.11L1189.8 49.1157V53.3569L1232.22 83.2679Z" fill="#D3AE63"/>
<path d="M1232.22 2.74806L1189.8 32.659V36.8844L1242.11 0L1189.8 0V2.74806L1232.22 2.74806Z" fill="#D3AE63"/>
<path d="M1204.12 39.0289L1256.4 2.14453L1308.69 39.0289H1204.09H1204.12ZM1256.4 6.36987L1213.98 36.2808H1298.79L1256.37 6.36987H1256.4Z" fill="#D3AE63"/>
<path d="M1323 86.0001V83.2679H1280.58L1323 53.3569V49.1157L1270.71 86.0001H1323Z" fill="#D3AE63"/>
<path d="M1323 36.8844V32.659L1280.58 2.74806L1323 2.74806V0L1270.71 0L1323 36.8844Z" fill="#D3AE63"/>
<path d="M1175.51 46.9712L1123.23 83.8556L1070.94 46.9712H1175.54H1175.51ZM1123.23 79.6302L1165.64 49.7193H1080.84L1123.25 79.6302H1123.23Z" fill="#D3AE63"/>
<path d="M1099.02 83.2679H1056.63V86.0001H1108.91L1056.63 49.1157V53.3569L1099.02 83.2679Z" fill="#D3AE63"/>
<path d="M1099.02 2.74806L1056.63 32.659V36.8844L1108.91 0L1056.63 0V2.74806L1099.02 2.74806Z" fill="#D3AE63"/>
<path d="M1070.92 39.0287L1123.2 2.14429L1175.49 39.0287H1070.89H1070.92ZM1123.2 6.36963L1080.79 36.2806H1165.59L1123.17 6.36963H1123.2Z" fill="#D3AE63"/>
<path d="M1189.8 86.0001V83.2679H1147.41L1189.8 53.3569V49.1157L1137.52 86.0001H1189.8Z" fill="#D3AE63"/>
<path d="M1189.8 36.8844V32.659L1147.41 2.74806L1189.8 2.74806V0L1137.52 0L1189.8 36.8844Z" fill="#D3AE63"/>
<path d="M1042.31 46.9712L990.027 83.8556L937.742 46.9712H1042.34H1042.31ZM990.027 79.6302L1032.44 49.7193H947.638L990.054 79.6302H990.027Z" fill="#D3AE63"/>
<path d="M965.842 83.2679H923.427V86.0001H975.712L923.427 49.1157V53.3569L965.842 83.2679Z" fill="#D3AE63"/>
<path d="M965.842 2.74806L923.427 32.659V36.8844L975.712 0L923.427 0V2.74806L965.842 2.74806Z" fill="#D3AE63"/>
<path d="M937.717 39.0289L990.028 2.14453L1042.31 39.0289H937.717ZM990.002 6.36987L947.586 36.2808H1032.39L989.975 6.36987H990.002Z" fill="#D3AE63"/>
<path d="M1056.63 86.0001V83.2679H1014.21L1056.63 53.3569V49.1157L1004.32 86.0001H1056.63Z" fill="#D3AE63"/>
<path d="M1056.63 36.8844V32.659L1014.21 2.74806L1056.63 2.74806V0L1004.32 0L1056.63 36.8844Z" fill="#D3AE63"/>
<path d="M909.139 46.9712L856.854 83.8556L804.569 46.9712H909.165H909.139ZM856.854 79.6302L899.269 49.7193H814.465L856.88 79.6302H856.854Z" fill="#D3AE63"/>
<path d="M832.643 83.2679H790.228V86.0001H842.539L790.228 49.1157V53.3569L832.643 83.2679Z" fill="#D3AE63"/>
<path d="M832.643 2.74806L790.228 32.659V36.8844L842.539 0L790.228 0V2.74806L832.643 2.74806Z" fill="#D3AE63"/>
<path d="M804.542 39.0289L856.827 2.14453L909.112 39.0289H804.516H804.542ZM856.827 6.36987L814.412 36.2808H899.216L856.801 6.36987H856.827Z" fill="#D3AE63"/>
<path d="M923.427 86.0001V83.2679H881.012L923.427 53.3569V49.1157L871.143 86.0001H923.427Z" fill="#D3AE63"/>
<path d="M923.427 36.8844V32.659L881.012 2.74806L923.427 2.74806V0L871.143 0L923.427 36.8844Z" fill="#D3AE63"/>
<path d="M775.94 46.9712L723.655 83.8556L671.37 46.9712H775.966H775.94ZM723.655 79.6302L766.07 49.7193H681.266L723.681 79.6302H723.655Z" fill="#D3AE63"/>
<path d="M699.444 83.2679H657.055V86.0001H709.34L657.055 49.1157V53.3569L699.444 83.2679Z" fill="#D3AE63"/>
<path d="M699.444 2.74806L657.055 32.659V36.8844L709.34 0L657.055 0V2.74806L699.444 2.74806Z" fill="#D3AE63"/>
<path d="M671.343 39.0289L723.628 2.14453L775.913 39.0289H671.317H671.343ZM723.628 6.36987L681.213 36.2808H766.017L723.602 6.36987H723.628Z" fill="#D3AE63"/>
<path d="M790.228 86.0001V83.2679H747.839L790.228 53.3569V49.1157L737.943 86.0001H790.228Z" fill="#D3AE63"/>
<path d="M790.228 36.8844V32.659L747.839 2.74806L790.228 2.74806V0L737.943 0L790.228 36.8844Z" fill="#D3AE63"/>
<path d="M642.741 46.9712L590.456 83.8556L538.171 46.9712H642.767H642.741ZM590.456 79.6302L632.871 49.7193H548.067L590.482 79.6302H590.456Z" fill="#D3AE63"/>
<path d="M566.244 83.2679H523.855V86.0001H576.14L523.855 49.1157V53.3569L566.244 83.2679Z" fill="#D3AE63"/>
<path d="M566.244 2.74806L523.855 32.659V36.8844L576.14 0L523.855 0V2.74806L566.244 2.74806Z" fill="#D3AE63"/>
<path d="M538.144 39.0289L590.455 2.14453L642.74 39.0289H538.144ZM590.428 6.36987L548.013 36.2808H632.817L590.402 6.36987H590.428Z" fill="#D3AE63"/>
<path d="M657.056 86.0001V83.2679H614.641L657.056 53.3569V49.1157L604.745 86.0001H657.056Z" fill="#D3AE63"/>
<path d="M657.056 36.8844V32.659L614.641 2.74806L657.056 2.74806V0L604.745 0L657.056 36.8844Z" fill="#D3AE63"/>
<path d="M509.54 46.9712L457.255 83.8556L404.97 46.9712H509.567H509.54ZM457.255 79.6302L499.671 49.7193H414.866L457.282 79.6302H457.255Z" fill="#D3AE63"/>
<path d="M433.07 83.2679H390.655V86.0001H442.966L390.655 49.1157V53.3569L433.07 83.2679Z" fill="#D3AE63"/>
<path d="M433.07 2.74806L390.655 32.659V36.8844L442.966 0L390.655 0V2.74806L433.07 2.74806Z" fill="#D3AE63"/>
<path d="M404.971 39.0289L457.256 2.14453L509.541 39.0289H404.944H404.971ZM457.256 6.36987L414.84 36.2808H499.645L457.229 6.36987H457.256Z" fill="#D3AE63"/>
<path d="M523.854 86.0001V83.2679H481.439L523.854 53.3569V49.1157L471.569 86.0001H523.854Z" fill="#D3AE63"/>
<path d="M523.854 36.8844V32.659L481.439 2.74806L523.854 2.74806V0L471.569 0L523.854 36.8844Z" fill="#D3AE63"/>
<path d="M376.366 46.9712L324.081 83.8556L271.796 46.9712H376.393H376.366ZM324.081 79.6302L366.497 49.7193H281.692L324.108 79.6302H324.081Z" fill="#D3AE63"/>
<path d="M299.871 83.2679H257.456V86.0001H309.767L257.456 49.1157V53.3569L299.871 83.2679Z" fill="#D3AE63"/>
<path d="M299.871 2.74806L257.456 32.659V36.8844L309.767 0L257.456 0V2.74806L299.871 2.74806Z" fill="#D3AE63"/>
<path d="M271.77 39.0289L324.055 2.14453L376.34 39.0289H271.744H271.77ZM324.055 6.36987L281.64 36.2808H366.444L324.055 6.36987Z" fill="#D3AE63"/>
<path d="M390.656 86.0001V83.2679H348.267L390.656 53.3569V49.1157L338.371 86.0001H390.656Z" fill="#D3AE63"/>
<path d="M390.656 36.8844V32.659L348.267 2.74806L390.656 2.74806V0L338.371 0L390.656 36.8844Z" fill="#D3AE63"/>
<path d="M243.168 46.9712L190.883 83.8556L138.598 46.9712H243.194H243.168ZM190.883 79.6302L233.298 49.7193H148.467L190.883 79.6302Z" fill="#D3AE63"/>
<path d="M166.673 83.2679H124.284V86.0001H176.569L124.284 49.1157V53.3569L166.673 83.2679Z" fill="#D3AE63"/>
<path d="M166.673 2.74806L124.284 32.659V36.8844L176.569 0L124.284 0V2.74806L166.673 2.74806Z" fill="#D3AE63"/>
<path d="M138.572 39.0289L190.883 2.14453L243.168 39.0289H138.572ZM190.883 6.36987L148.468 36.2808H233.272L190.883 6.36987Z" fill="#D3AE63"/>
<path d="M257.456 86.0001V83.2679H215.067L257.456 53.3569V49.1157L205.171 86.0001H257.456Z" fill="#D3AE63"/>
<path d="M257.456 36.8844V32.659L215.067 2.74806L257.456 2.74806V0L205.171 0L257.456 36.8844Z" fill="#D3AE63"/>
<path d="M109.968 39.0288H0L0 0L54.6399 0L109.968 39.0288ZM4.55112 36.2808H100.098L52.5231 2.74806L4.55112 2.74806L4.55112 36.2808Z" fill="#D3AE63"/>
<path d="M81.8667 2.74806L124.282 2.74806V0L71.9707 0L124.282 36.8844V32.659L81.8667 2.74806Z" fill="#D3AE63"/>
<path d="M81.8667 83.2679L124.282 53.3569V49.1157L71.9707 86.0001H124.282V83.2679H81.8667Z" fill="#D3AE63"/>
<path d="M109.968 46.9712L54.6399 86H0L0 46.9712H109.968ZM100.072 49.7193H4.55112L4.55112 83.2678H52.5231L100.072 49.7193Z" fill="#D3AE63"/>
</g>
<defs>
<clipPath id="clip0_2258_9037">
<rect width="2646" height="86" fill="white"/>
</clipPath>
</defs>
</svg>
