<svg width="1512" height="43" viewBox="0 0 1512 43" fill="none" xmlns="http://www.w3.org/2000/svg">
<g opacity="0.5" clip-path="url(#clip0_2258_6061)">
<path d="M1465.19 2.74806L1440.93 32.659V36.8844L1470.85 0L1440.93 0V2.74806L1465.19 2.74806Z" fill="#D3AE63"/>
<path d="M1449.12 39.0288L1480.76 0L1512 0V39.0288H1449.12ZM1454.78 36.2808H1509.4V2.74806L1481.97 2.74806L1454.78 36.2966V36.2808Z" fill="#D3AE63"/>
<path d="M1372.96 39.0288L1402.85 2.14441L1432.75 39.0288H1372.94H1372.96ZM1402.85 6.36975L1378.6 36.2807H1427.09L1402.84 6.36975H1402.85Z" fill="#D3AE63"/>
<path d="M1440.93 36.8844V32.659L1416.7 2.74806L1440.93 2.74806V0L1411.04 0L1440.93 36.8844Z" fill="#D3AE63"/>
<path d="M1312.86 2.74806L1288.62 32.659V36.8844L1318.52 0L1288.62 0V2.74806L1312.86 2.74806Z" fill="#D3AE63"/>
<path d="M1296.79 39.0288L1326.69 2.14441L1356.58 39.0288H1296.78H1296.79ZM1326.69 6.36975L1302.43 36.2807H1350.93L1326.67 6.36975H1326.69Z" fill="#D3AE63"/>
<path d="M1389.02 2.74806L1364.77 32.659V36.8844L1394.68 0L1364.77 0V2.74806L1389.02 2.74806Z" fill="#D3AE63"/>
<path d="M1364.77 36.8844V32.659L1340.53 2.74806L1364.77 2.74806V0L1334.87 0L1364.77 36.8844Z" fill="#D3AE63"/>
<path d="M1236.71 2.74806L1212.46 32.659V36.8844L1242.35 0L1212.46 0V2.74806L1236.71 2.74806Z" fill="#D3AE63"/>
<path d="M1220.64 39.0288L1250.54 2.14441L1280.44 39.0288H1220.63H1220.64ZM1250.54 6.36975L1226.29 36.2807H1274.78L1250.52 6.36975H1250.54Z" fill="#D3AE63"/>
<path d="M1288.62 36.8844V32.659L1264.37 2.74806L1288.62 2.74806V0L1258.71 0L1288.62 36.8844Z" fill="#D3AE63"/>
<path d="M1160.55 2.74806L1136.29 32.659V36.8844L1166.2 0L1136.29 0V2.74806L1160.55 2.74806Z" fill="#D3AE63"/>
<path d="M1144.48 39.0288L1174.37 2.14441L1204.27 39.0288H1144.46H1144.48ZM1174.37 6.36975L1150.12 36.2807H1198.61L1174.36 6.36975H1174.37Z" fill="#D3AE63"/>
<path d="M1212.46 36.8844V32.659L1188.2 2.74806L1212.46 2.74806V0L1182.56 0L1212.46 36.8844Z" fill="#D3AE63"/>
<path d="M1084.38 2.74806L1060.14 32.659V36.8844L1090.04 0L1060.14 0V2.74806L1084.38 2.74806Z" fill="#D3AE63"/>
<path d="M1068.31 39.0288L1098.21 2.14441L1128.11 39.0288H1068.3H1068.31ZM1098.21 6.36975L1073.96 36.2807H1122.45L1098.19 6.36975H1098.21Z" fill="#D3AE63"/>
<path d="M1136.29 36.8844V32.659L1112.05 2.74806L1136.29 2.74806V0L1106.39 0L1136.29 36.8844Z" fill="#D3AE63"/>
<path d="M1008.23 2.74806L983.979 32.659V36.8844L1013.88 0L983.979 0V2.74806L1008.23 2.74806Z" fill="#D3AE63"/>
<path d="M992.164 39.0288L1022.06 2.14441L1051.96 39.0288H992.148H992.164ZM1022.06 6.36975L997.807 36.2807H1046.3L1022.05 6.36975H1022.06Z" fill="#D3AE63"/>
<path d="M1060.14 36.8844V32.659L1035.89 2.74806L1060.14 2.74806V0L1030.23 0L1060.14 36.8844Z" fill="#D3AE63"/>
<path d="M932.067 2.74806L907.813 32.659V36.8844L937.726 0L907.813 0V2.74806L932.067 2.74806Z" fill="#D3AE63"/>
<path d="M915.999 39.0288L945.895 2.14441L975.792 39.0288H915.983H915.999ZM945.895 6.36975L921.642 36.2807H970.134L945.88 6.36975H945.895Z" fill="#D3AE63"/>
<path d="M983.978 36.8844V32.659L959.725 2.74806L983.978 2.74806V0L954.081 0L983.978 36.8844Z" fill="#D3AE63"/>
<path d="M855.902 2.74806L831.664 32.659V36.8844L861.561 0L831.664 0V2.74806L855.902 2.74806Z" fill="#D3AE63"/>
<path d="M839.834 39.0288L869.731 2.14441L899.628 39.0288H839.819H839.834ZM869.731 6.36975L845.478 36.2807H893.97L869.716 6.36975H869.731Z" fill="#D3AE63"/>
<path d="M907.814 36.8844V32.659L883.576 2.74806L907.814 2.74806V0L877.917 0L907.814 36.8844Z" fill="#D3AE63"/>
<path d="M779.753 2.74806L755.5 32.659V36.8844L785.397 0L755.5 0V2.74806L779.753 2.74806Z" fill="#D3AE63"/>
<path d="M763.67 39.0288L793.567 2.14441L823.464 39.0288H763.655H763.67ZM793.567 6.36975L769.314 36.2807H817.806L793.552 6.36975H793.567Z" fill="#D3AE63"/>
<path d="M831.664 36.8844V32.659L807.411 2.74806L831.664 2.74806V0L801.752 0L831.664 36.8844Z" fill="#D3AE63"/>
<path d="M703.589 2.74806L679.336 32.659V36.8844L709.248 0L679.336 0V2.74806L703.589 2.74806Z" fill="#D3AE63"/>
<path d="M687.521 39.0288L717.418 2.14441L747.315 39.0288H687.506H687.521ZM717.418 6.36975L693.164 36.2807H741.656L717.403 6.36975H717.418Z" fill="#D3AE63"/>
<path d="M755.5 36.8844V32.659L731.247 2.74806L755.5 2.74806V0L725.604 0L755.5 36.8844Z" fill="#D3AE63"/>
<path d="M627.425 2.74806L603.187 32.659V36.8844L633.083 0L603.187 0V2.74806L627.425 2.74806Z" fill="#D3AE63"/>
<path d="M611.357 39.0287L641.254 2.14429L671.151 39.0287H611.342H611.357ZM641.254 6.36963L617 36.2806H665.492L641.239 6.36963H641.254Z" fill="#D3AE63"/>
<path d="M679.335 36.8844V32.659L655.097 2.74806L679.335 2.74806V0L649.438 0L679.335 36.8844Z" fill="#D3AE63"/>
<path d="M551.275 2.74806L527.021 32.659V36.8844L556.918 0L527.021 0V2.74806L551.275 2.74806Z" fill="#D3AE63"/>
<path d="M535.192 39.0288L565.104 2.14441L595.001 39.0288H535.192ZM565.089 6.36975L540.836 36.2807H589.328L565.074 6.36975H565.089Z" fill="#D3AE63"/>
<path d="M603.186 36.8844V32.659L578.933 2.74806L603.186 2.74806V0L573.274 0L603.186 36.8844Z" fill="#D3AE63"/>
<path d="M475.111 2.74806L450.857 32.659V36.8844L480.769 0L450.857 0V2.74806L475.111 2.74806Z" fill="#D3AE63"/>
<path d="M459.042 39.0288L488.939 2.14441L518.836 39.0288H459.027H459.042ZM488.939 6.36975L464.686 36.2807H513.178L488.924 6.36975H488.939Z" fill="#D3AE63"/>
<path d="M527.022 36.8844V32.659L502.768 2.74806L527.022 2.74806V0L497.125 0L527.022 36.8844Z" fill="#D3AE63"/>
<path d="M398.946 2.74806L374.708 32.659V36.8844L404.605 0L374.708 0V2.74806L398.946 2.74806Z" fill="#D3AE63"/>
<path d="M382.878 39.0288L412.775 2.14441L442.672 39.0288H382.863H382.878ZM412.775 6.36975L388.522 36.2807H437.014L412.76 6.36975H412.775Z" fill="#D3AE63"/>
<path d="M450.858 36.8844V32.659L426.62 2.74806L450.858 2.74806V0L420.961 0L450.858 36.8844Z" fill="#D3AE63"/>
<path d="M322.782 2.74806L298.544 32.659V36.8844L328.441 0L298.544 0V2.74806L322.782 2.74806Z" fill="#D3AE63"/>
<path d="M306.714 39.0288L336.626 2.14441L366.523 39.0288H306.714ZM336.611 6.36975L312.357 36.2807H360.849L336.596 6.36975H336.611Z" fill="#D3AE63"/>
<path d="M374.708 36.8844V32.659L350.455 2.74806L374.708 2.74806V0L344.796 0L374.708 36.8844Z" fill="#D3AE63"/>
<path d="M246.632 2.74806L222.379 32.659V36.8844L252.291 0L222.379 0V2.74806L246.632 2.74806Z" fill="#D3AE63"/>
<path d="M230.565 39.0288L260.462 2.14441L290.359 39.0288H230.55H230.565ZM260.462 6.36975L236.208 36.2807H284.7L260.447 6.36975H260.462Z" fill="#D3AE63"/>
<path d="M298.543 36.8844V32.659L274.29 2.74806L298.543 2.74806V0L268.646 0L298.543 36.8844Z" fill="#D3AE63"/>
<path d="M170.468 2.74806L146.215 32.659V36.8844L176.127 0L146.215 0V2.74806L170.468 2.74806Z" fill="#D3AE63"/>
<path d="M154.4 39.0288L184.297 2.14441L214.194 39.0288H154.385H154.4ZM184.297 6.36975L160.043 36.2807H208.535L184.297 6.36975Z" fill="#D3AE63"/>
<path d="M222.379 36.8844V32.659L198.141 2.74806L222.379 2.74806V0L192.482 0L222.379 36.8844Z" fill="#D3AE63"/>
<path d="M94.3037 2.74806L70.0654 32.659V36.8844L99.9623 0L70.0654 0V2.74806L94.3037 2.74806Z" fill="#D3AE63"/>
<path d="M78.2354 39.0288L108.147 2.14441L138.044 39.0288H78.2354ZM108.147 6.36975L83.894 36.2807H132.386L108.147 6.36975Z" fill="#D3AE63"/>
<path d="M146.215 36.8844V32.659L121.977 2.74806L146.215 2.74806V0L116.318 0L146.215 36.8844Z" fill="#D3AE63"/>
<path d="M61.8803 39.0288H-1L-1 0L30.2435 0L61.8803 39.0288ZM1.60236 36.2808H56.2368L29.0331 2.74806L1.60236 2.74806L1.60236 36.2808Z" fill="#D3AE63"/>
<path d="M45.8119 2.74806L70.0653 2.74806V0L40.1533 0L70.0653 36.8844V32.659L45.8119 2.74806Z" fill="#D3AE63"/>
</g>
<defs>
<clipPath id="clip0_2258_6061">
<rect width="1513" height="86" fill="white" transform="translate(-1)"/>
</clipPath>
</defs>
</svg>
