<svg width="27" height="54" viewBox="0 0 27 54" fill="none" xmlns="http://www.w3.org/2000/svg">
<path d="M13.4023 53.2272V37.2888L26.9979 44.9767V53.2287H13.4023V53.2272ZM25.8817 52.1109V45.6284L14.52 39.2037V52.1109H25.8817Z" fill="black"/>
<path d="M13.873 19.0067L13.8834 18.9992L13.9844 18.9132L26.9996 9.45581V25.7267L13.8745 19.0067H13.873ZM25.8819 23.8994V11.6468L15.994 18.8315H15.997L15.9925 18.836L25.8819 23.8979V23.8994Z" fill="black"/>
<path d="M13.8604 36.3804L13.8826 36.3656L13.9835 36.2839L26.9973 27.5347V43.8085L13.8604 36.3804ZM25.8811 41.8936V29.6307L15.9858 36.2825L15.9754 36.2914L25.8811 41.8921V41.8936Z" fill="black"/>
<path d="M13.4029 19.9062L26.519 26.6204L26.4121 26.7065L13.4014 35.4527V19.9062H13.4029ZM14.519 33.3567L24.3342 26.7584L14.519 21.7336V33.3567Z" fill="black"/>
<path d="M0 53.2276V45.6985L12.3889 37.3708V53.2276H0ZM11.2712 52.1113V39.4684L1.11614 46.2953V52.1113H11.2712Z" fill="black"/>
<path d="M13.4023 2.17915L26.9994 0V8.20002L13.4023 18.0789V2.17915Z" fill="black"/>
<path d="M0 11.8902V4.32698L12.3874 2.34229V18.2332L0 11.8902Z" fill="black"/>
<path d="M0 13.0317L11.9273 19.1372L11.8278 19.2233L0 27.8063V13.0317Z" fill="black"/>
<path d="M0 29.6976L11.9198 36.437L11.8263 36.5246L0 44.4752V29.6976Z" fill="black"/>
<path d="M0.419922 28.7684L0.516391 28.6867L12.3873 20.071V35.5359L0.419922 28.7684Z" fill="black"/>
</svg>
