<svg width="52" height="100" viewBox="0 0 52 100" fill="none" xmlns="http://www.w3.org/2000/svg">
<path d="M26.3115 99.226V69.5138L51.9983 83.8455V99.2288H26.3115V99.226ZM49.8895 97.145V85.0603L28.4231 73.0836V97.145H49.8895Z" fill="white"/>
<path d="M27.2012 35.4325L27.2208 35.4186L27.4115 35.2581L52.0019 17.6278V47.9599L27.204 35.4325H27.2012ZM49.8903 44.5534V21.7123L31.2084 35.1059H31.2141L31.2056 35.1142L49.8903 44.5506V44.5534Z" fill="white"/>
<path d="M27.1777 67.8204L27.2198 67.7927L27.4105 67.6405L51.998 51.3302V81.6679L27.1777 67.8204ZM49.8892 78.0981V55.2376L31.1934 67.6378L31.1738 67.6544L49.8892 78.0953V78.0981Z" fill="white"/>
<path d="M26.3124 37.109L51.0934 49.6254L50.8915 49.7859L26.3096 66.0907V37.109H26.3124ZM28.4212 62.1833L46.9656 49.8828L28.4212 40.5155V62.1833Z" fill="white"/>
<path d="M0.989258 99.2264V85.1908L24.3962 69.6664V99.2264H0.989258ZM22.2846 97.1454V73.5765L3.09805 86.3032V97.1454H22.2846Z" fill="white"/>
<path d="M26.3115 4.06236L52.0011 0V15.2864L26.3115 33.7027V4.06236Z" fill="white"/>
<path d="M0.989258 22.1657V8.06642L24.3934 4.36658V33.9903L0.989258 22.1657Z" fill="white"/>
<path d="M0.989258 24.2937L23.5241 35.6755L23.3362 35.836L0.989258 51.8364V24.2937Z" fill="white"/>
<path d="M0.989258 55.3622L23.5101 67.9256L23.3334 68.0889L0.989258 82.9104V55.3622Z" fill="white"/>
<path d="M1.78223 53.6296L1.96449 53.4774L24.3928 37.4161V66.2456L1.78223 53.6296Z" fill="white"/>
</svg>
