<svg width="242" height="112" viewBox="0 0 242 112" fill="none" xmlns="http://www.w3.org/2000/svg">
<path d="M164.689 66.9326V94.1487H155.225V66.9326H147.488V94.1487H138.301V76.4548H130.564V94.1487L97.8053 93.7807C101.022 91.6886 103.787 87.3219 103.787 81.8952V76.452H76.3361V80.8686L79.3001 94.1487H71.3249C69.132 94.1487 67.3569 91.9598 67.3569 89.7958V86.5111C67.3569 80.9571 62.7944 76.452 57.1635 76.452H40.439V90.1639C40.439 92.3251 40.038 95.3636 35.254 95.3636C31.7067 95.3636 31.0448 92.3251 31.0448 90.1639V76.452H17.6154C11.7882 76.452 8.05011 81.1121 8.05011 86.8514V98.2194C8.05011 100.45 8.3025 104.155 4.36255 104.155H0.00195312V109.601H6.47693C13.6109 109.601 15.7842 104.02 15.7842 99.2267V85.4097C15.7842 82.41 17.6406 81.1647 20.0242 81.1647H23.3052V89.223C23.3052 95.2335 25.7645 100.154 34.1547 100.154C38.0695 100.154 41.0476 98.5764 42.7974 96.6504C45.0184 99.1769 49.0088 100.442 53.9274 100.442C58.8461 100.442 63.0832 98.5238 64.9509 95.7316C66.1595 97.7573 68.2963 99.2239 71.3277 99.2239H172.423V66.9298H164.686L164.689 66.9326ZM59.6172 90.222C59.6172 93.7807 57.1719 95.3636 53.9302 95.3636C51.0475 95.3636 48.2432 93.9274 48.2432 89.3254V81.1619H55.4585C57.6907 81.1619 59.6172 83.0188 59.6172 86.1901V90.222ZM86.1004 93.6838L83.3943 81.1619H96.047C96.7004 88.462 92.811 93.0086 86.0976 93.6838H86.1004Z" fill="white"/>
<path d="M138.15 56.4056H155.228V24.1115H147.491V51.3276H138.304V32.9667H130.5V54.6511C130.5 56.8788 130.668 60.6699 126.731 60.6699H125.236V66.1159H128.845C136.136 66.1159 138.153 61.204 138.153 56.4083L138.15 56.4056Z" fill="white"/>
<path d="M121.563 32.9667H113.826V51.3276H79.2976V24.1115H71.5635V56.4056H121.563V32.9667Z" fill="white"/>
<path d="M22.5139 65.8698C31.5464 65.8698 37.1044 62.0177 37.1801 56.4057H64.8747V42.9512C64.8747 37.2118 60.144 32.5518 54.3869 32.5518C47.8923 32.5518 41.7145 36.199 37.1885 39.0355V32.9668H29.4516V54.4077C29.4516 59.6987 25.621 61.1599 22.5139 61.1599C17.514 61.1599 15.7838 58.3953 15.7838 54.6512V40.6433H8.04688V55.7969C8.04688 61.741 12.9739 65.8698 22.5139 65.8698ZM37.1885 44.7388C42.5754 39.8906 48.2428 38.0642 53.1614 38.0642C55.0795 38.0642 57.1378 39.755 57.1378 42.6938V51.325H37.1885V44.7361V44.7388Z" fill="white"/>
<path d="M50.2511 23.8929L45.1109 19.8389L40.0381 23.8929L45.1109 27.8889L50.2511 23.8929Z" fill="white"/>
<path d="M172.425 24.1115H164.688V56.4056H172.425V24.1115Z" fill="white"/>
<path d="M116.085 80.1297L121.528 75.7684L116.085 71.4653L110.569 75.7684L116.085 80.1297Z" fill="white"/>
<path d="M116.085 62.8009L110.569 67.104L116.085 71.4652L121.528 67.104L116.085 62.8009Z" fill="white"/>
<path d="M31.6172 107.639L37.1331 112L42.5761 107.639L37.1331 103.336L31.6172 107.639Z" fill="white"/>
<path d="M20.6582 107.639L26.1741 112L31.6172 107.639L26.1741 103.336L20.6582 107.639Z" fill="white"/>
<path d="M216.312 99.226V69.5138L241.998 83.8455V99.2288H216.312V99.226ZM239.89 97.145V85.0603L218.423 73.0836V97.145H239.89Z" fill="white"/>
<path d="M217.201 35.4325L217.221 35.4186L217.411 35.2581L242.002 17.6278V47.9599L217.204 35.4325H217.201ZM239.89 44.5534V21.7123L221.208 35.1059H221.214L221.206 35.1142L239.89 44.5506V44.5534Z" fill="white"/>
<path d="M217.178 67.8204L217.22 67.7927L217.41 67.6405L241.998 51.3302V81.6679L217.178 67.8204ZM239.889 78.0981V55.2376L221.193 67.6378L221.174 67.6544L239.889 78.0953V78.0981Z" fill="white"/>
<path d="M216.312 37.109L241.093 49.6254L240.891 49.7859L216.31 66.0907V37.109H216.312ZM218.421 62.1833L236.966 49.8828L218.421 40.5155V62.1833Z" fill="white"/>
<path d="M190.989 99.2264V85.1908L214.396 69.6664V99.2264H190.989ZM212.285 97.1454V73.5765L193.098 86.3032V97.1454H212.285Z" fill="white"/>
<path d="M216.312 4.06236L242.001 0V15.2864L216.312 33.7027V4.06236Z" fill="white"/>
<path d="M190.989 22.1657V8.06642L214.393 4.36658V33.9903L190.989 22.1657Z" fill="white"/>
<path d="M190.989 24.2937L213.524 35.6755L213.336 35.836L190.989 51.8364V24.2937Z" fill="white"/>
<path d="M190.989 55.3622L213.51 67.9256L213.333 68.0889L190.989 82.9104V55.3622Z" fill="white"/>
<path d="M191.782 53.6296L191.964 53.4774L214.393 37.4161V66.2456L191.782 53.6296Z" fill="white"/>
</svg>
